<svg width="138" height="136" viewBox="0 0 138 136" fill="none" xmlns="http://www.w3.org/2000/svg">
    <path d="M89 50C97.8538 36.9632 104.495 23.6555 108.561 10.8078C109.973 6.34807 106.506 2 101.829 2V2C99.8767 2 98.0064 2.78265 96.6362 4.17275L67.2663 33.9703C57.1178 44.2666 43.2645 50.0636 28.8075 50.0636L2 50.0635V119.113H15.5354M89 50L129.028 50.0566C131.898 50.0606 134.382 52.0946 134.811 54.9326C135.574 59.9828 136 65.1001 136 70.3721C136 87.6343 132.142 104.49 125.172 119.113C123.884 121.797 122.468 124.609 120.958 127.245C120.207 128.557 118.947 129.498 117.484 129.879C95.6663 135.56 75.3709 135.346 60.2981 129.37C49.0973 124.93 37.816 119.113 25.7671 119.113H24.3333V62.9256M89 50H85C82.7909 50 81 51.7909 81 54V54C81 56.2091 82.7909 58 85 58V58C87.2091 58 89 56.2091 89 54V50Z" stroke="url(#paint0_linear)" stroke-width="4" stroke-miterlimit="10" stroke-linejoin="bevel"/>
    <defs>
        <linearGradient id="paint0_linear" x1="8.7" y1="118.286" x2="132.65" y2="118.286" gradientUnits="userSpaceOnUse">
            <stop stop-color="#ED6D43"/>
            <stop offset="1" stop-color="#ED3751"/>
        </linearGradient>
    </defs>
</svg>
