<svg width="133" height="57" viewBox="0 0 133 57" fill="none" xmlns="http://www.w3.org/2000/svg">
    <path d="M24.346 21.4383L24.8797 21.9007C32.4067 13.2267 49.7552 5.28595 70.4168 5.28595H70.2895C91.1818 5.28595 107.028 11.985 115.437 20.7373H116.109C108.903 10.3089 92.2158 0.449951 70.2895 0.449951H70.4168C48.4868 0.449951 31.7857 10.5971 24.346 21.4383Z" fill="#8D949A"/>
    <path d="M70.9595 51.3323C68.6416 52.5069 65.0716 53.6121 62.0703 53.6121C54.6186 53.6121 52.3856 49.6683 52.848 45.3568C53.2944 41.2825 54.9565 36.8538 54.9565 34.7828C54.9565 32.999 53.9644 32.093 52.6208 32.093C50.5306 32.093 47.7231 33.7051 46.3483 34.8753C46.5104 34.0397 46.6118 33.4635 46.6118 33.3032C46.6118 32.4763 46.066 32.0915 45.0523 32.0915C44.1211 32.0915 42.0898 32.6304 40.9412 32.9845C41.2567 33.0828 41.4132 33.7156 41.4132 34.2278C41.4132 36.2458 39.664 44.7046 38.0651 48.3495C42.5967 48.7349 43.2108 47.9519 43.7578 46.112C44.255 44.4546 45.1379 40.6514 45.7899 37.6099C46.4911 36.8538 48.1741 35.6627 49.0494 35.6627C49.5341 35.6627 49.7336 35.9557 49.7336 36.3952C49.7336 37.9206 48.2038 42.6954 47.9784 45.5418C47.438 52.4911 52.848 56.2138 59.6459 56.2138C63.5939 56.2138 67.7617 54.7758 71.2585 51.8123C71.5288 51.5859 71.2989 51.1662 70.9595 51.3323ZM88.154 32.3379C84.0472 31.8725 83.0804 33.7884 82.7298 35.432C82.118 38.3767 81.4704 41.2366 81.0326 43.1995C80.3159 43.9543 78.8174 45.104 77.949 45.104C77.4665 45.104 77.2632 44.8207 77.2632 44.3791C77.2632 43.282 79.6035 34.527 79.6035 33.3032C79.6035 32.4711 79.0565 32.0915 78.0427 32.0915C77.1918 32.0915 75.2894 32.548 74.0947 32.8918C73.9895 32.9231 73.9895 33.0679 74.0635 33.1395C74.3223 33.3776 74.4095 33.8342 74.4095 34.2278C74.4095 37.349 72.1363 44.2465 72.1363 45.9796C72.1363 47.7727 73.1165 48.6859 74.4697 48.6859C76.5175 48.6859 79.0699 47.1152 80.4386 45.9511C80.1774 47.9476 81.401 48.7203 82.6762 48.7203C84.0965 48.7203 85.396 48.3927 86.7292 47.5718C86.8097 47.5187 86.8275 47.353 86.7561 47.3149C85.7243 46.8037 85.2799 45.8525 85.5056 44.4724C85.6773 43.4139 86.9771 37.6369 88.154 32.3379ZM127.422 34.1502C127.931 34.1502 128.295 34.5042 128.295 35.0822C128.295 37.4374 126.361 40.1796 123.063 41.1397C123.516 37.4061 125.678 34.1502 127.422 34.1502ZM130.303 44.1604C128.74 45.1876 127.069 45.6996 125.834 45.6996C124.271 45.6996 123.079 44.8763 122.987 42.7923C127.176 42.3486 132.5 39.4887 132.5 35.8713C132.5 33.5651 130.903 32.093 128.034 32.093C122.291 32.093 117.887 37.3658 117.887 43.0275C117.887 46.4587 119.87 48.6859 123.369 48.6859C126.866 48.6859 129.503 46.9532 130.691 44.4371C130.841 44.1276 130.691 43.9027 130.303 44.1604ZM97.8318 34.1502C98.3433 34.1502 98.7094 34.5042 98.7094 35.0822C98.7094 37.4374 96.7734 40.1796 93.4753 41.1397C93.9196 37.4061 96.0945 34.1502 97.8318 34.1502ZM100.712 44.1604C99.1495 45.1876 97.4812 45.6996 96.2553 45.6996C94.6857 45.6996 93.4908 44.8763 93.3927 42.7923C97.5884 42.3486 102.917 39.4887 102.917 35.8713C102.917 33.5651 101.32 32.093 98.4439 32.093C92.6981 32.093 88.2945 37.3658 88.2945 43.0275C88.2945 46.4587 90.2864 48.6859 93.7812 48.6859C97.2782 48.6859 99.9086 46.9532 101.101 44.4371C101.253 44.1276 101.101 43.9027 100.712 44.1604ZM66.969 34.2887C66.2833 37.4521 65.5167 40.9372 65.0388 43.0879C64.1702 44.0293 62.8996 45.1154 61.8411 45.1154C61.2024 45.1154 60.4142 44.7973 60.4142 43.2998C60.4142 38.3068 63.6343 34.527 66.969 34.2887ZM58.9874 48.6859C61.1823 48.6859 63.4334 46.8752 64.4865 45.5657C64.4799 45.5969 64.4753 45.6281 64.4718 45.6506C64.0378 47.8701 65.3305 48.6932 66.6697 48.6932C68.0923 48.6932 69.3941 48.3866 70.7384 47.554C70.8121 47.5113 70.8032 47.3477 70.7316 47.3089C69.7066 46.7954 69.2668 45.848 69.4902 44.4724C69.7648 42.7574 73.0182 28.6272 73.9158 24.2668C74.1615 23.0709 73.7461 21.8044 71.9374 21.8044C71.0979 21.8044 69.6195 22.2541 68.4048 22.5973C68.2775 22.6337 68.2887 22.7805 68.3781 22.8466C68.7084 23.0887 68.9498 23.6787 68.9498 24.243C68.9498 24.7725 68.2976 28.0505 67.4424 32.093C60.7864 31.7741 55.1778 36.7685 55.1778 43.6014C55.1778 46.6389 56.7119 48.6859 58.9874 48.6859ZM115.279 44.4724C115.774 41.4756 118.724 28.849 119.649 24.4841C119.986 22.919 119.416 21.8044 117.735 21.8044C116.92 21.8044 115.504 22.2317 114.281 22.575C114.124 22.6187 114.144 22.8123 114.243 22.8966C114.553 23.1512 114.725 23.591 114.725 24.1566C114.725 26.1678 110.795 41.8141 110.261 45.6506C109.946 47.8894 111.114 48.6932 112.454 48.6932C113.85 48.6932 115.411 48.3957 116.728 47.603C116.831 47.5426 116.835 47.3266 116.744 47.2771C115.768 46.758 115.058 45.8232 115.279 44.4724ZM107.481 44.4724C107.981 41.4756 110.933 28.849 111.851 24.4841C112.19 22.919 111.619 21.8044 109.944 21.8044C109.122 21.8044 107.709 22.2317 106.48 22.575C106.322 22.6187 106.342 22.8123 106.445 22.8966C106.751 23.1512 106.927 23.591 106.927 24.1566C106.927 26.1678 103.006 41.8141 102.47 45.6506C102.153 47.8894 103.323 48.6932 104.663 48.6932C106.047 48.6932 107.613 48.3957 108.939 47.603C109.037 47.5426 109.044 47.3266 108.95 47.2771C107.968 46.758 107.253 45.8232 107.481 44.4724ZM29.4767 46.4798C28.5143 46.4798 27.7909 45.7323 27.8847 43.6227C28.0923 38.9703 30.1652 34.39 32.3685 34.39C33.4069 34.39 34.0187 35.1627 33.9832 37.2512C33.91 41.5983 31.6881 46.4798 29.4767 46.4798ZM34.0187 32.1594C27.2825 31.5564 22.7397 37.7322 22.7397 42.9515C22.7397 46.0177 24.6824 48.3777 27.8585 48.6427C34.6918 49.2086 39.1355 43.0691 39.1355 37.8493C39.1355 34.774 37.1949 32.4472 34.0187 32.1594ZM7.61971 46.2143L10.2487 35.1998C14.0404 35.0465 15.8774 36.4325 15.8774 39.2337C15.8774 42.4781 13.209 46.6137 7.61971 46.2143ZM14.7483 33.6278C20.1516 32.4294 23.5108 29.3432 23.5108 25.8149C23.5108 22.7973 20.5736 20.3755 16.0949 20.3755C10.6306 20.3755 4.88864 23.838 2.04007 27.8322C1.78987 28.1801 1.93507 28.4501 2.23132 28.2426C5.94345 25.5857 10.1572 23.5849 13.6824 23.5849C16.5318 23.5849 17.8157 25.0052 17.8157 26.5743C17.8157 29.1511 15.556 31.81 10.8472 32.6908L12.4795 25.8553C8.76821 26.416 6.86565 27.1534 5.96281 30.6052C4.89759 34.6625 2.50157 44.7498 2.17098 46.0265C1.86292 47.224 1.31428 47.6811 0.538669 48.1307C0.482893 48.1648 0.485076 48.2349 0.559511 48.2408C2.24472 48.3777 6.32227 48.4473 7.87053 48.4473C17.9885 48.4473 21.8666 43.855 21.8666 39.304C21.8666 36.0092 18.942 33.87 14.7483 33.6278Z" fill="#8D949A"/>
</svg>
