<svg width="133" height="27" viewBox="0 0 133 27" fill="none" xmlns="http://www.w3.org/2000/svg">
    <path d="M132.201 24.8815L114.834 12.6204L131.234 1.82904C131.814 1.44226 131.621 0.630005 130.924 0.630005H125.084C124.697 0.630005 124.426 0.707362 124.194 0.939434L108.53 11.4987V1.44226C108.53 0.978112 108.143 0.630005 107.717 0.630005H103.888C103.424 0.630005 103.076 1.01679 103.076 1.44226V25.307C103.076 25.7711 103.463 26.1192 103.888 26.1192H107.717C108.181 26.1192 108.53 25.7324 108.53 25.307V14.2449L125.007 25.8485C125.239 26.0032 125.587 26.1579 125.896 26.1579H131.814C132.51 26.1579 132.742 25.3456 132.201 24.8815Z" fill="#8D949A"/>
    <path d="M58.402 15.8306V21.6711H40.4937V15.8306H34.7306V21.207C34.7306 24.572 36.4712 26.1578 40.2617 26.1578C40.4937 26.1578 58.4406 26.1578 58.6727 26.1578C62.5019 26.1578 64.2037 24.6494 64.2037 21.207L64.1264 15.8306H58.402Z" fill="#8D949A"/>
    <path d="M40.4551 5.03937H58.2859V10.8798H64.049V5.58087C64.2037 2.21583 62.4632 0.630005 58.6727 0.630005C58.4406 0.630005 40.4937 0.630005 40.2617 0.630005C36.4325 0.630005 34.7306 2.13847 34.7306 5.58087V10.8798H40.4937V5.03937H40.4551Z" fill="#8D949A"/>
    <path d="M25.177 13.2779C27.2656 12.9685 28.8515 11.2666 28.8515 9.17798V5.58087C28.8515 2.21583 27.1109 0.630005 23.3204 0.630005H1.38963C0.925484 0.630005 0.5 1.09415 0.5 1.51961V25.1136C0.5 25.6938 0.964163 26.0805 1.38963 26.0805H22.5855C26.7628 26.0805 29.0062 24.34 29.0062 21.0523V17.3005C29.0449 15.2118 27.343 13.4326 25.177 13.2779ZM5.91501 4.96201H21.1157C22.6242 4.96201 23.3591 5.61955 23.3591 7.12801V9.06194C23.3591 10.4931 22.6242 11.1506 21.1157 11.1506H5.91501V4.96201ZM23.5138 19.6599H23.4365C23.4365 21.091 22.7015 21.7485 21.1931 21.7485H5.91501V15.5213H21.2705C22.7789 15.5213 23.5138 16.1788 23.5138 17.6873V19.6599Z" fill="#8D949A"/>
    <path d="M98.1636 24.8815L88.2618 16.4882C88.2618 16.4882 91.5495 16.4882 91.6269 16.4882C95.4561 16.4882 97.1579 14.9798 97.1579 11.5374V5.58087C97.1579 2.21583 95.4174 0.630005 91.6269 0.630005H70.8951C70.3536 0.630005 69.9282 1.09415 69.9282 1.59697V25.3456C69.9282 25.8098 70.3149 26.1579 70.7404 26.1579H74.5696C75.0337 26.1579 75.3818 25.7711 75.3818 25.3456V16.4496H80.7582L91.6269 25.7324C91.9363 25.9645 92.2071 26.1192 92.7486 26.1192H97.7768C98.473 26.0805 98.7437 25.3456 98.1636 24.8815ZM75.3818 12.2336V4.96201H89.3835C90.892 4.96201 91.6269 5.61955 91.6269 7.12801V10.1063C91.6269 11.5374 90.892 12.1949 89.3835 12.1949H75.3818V12.2336Z" fill="#8D949A"/>
</svg>
