<svg width="72" height="72" viewBox="0 0 72 72" fill="none" xmlns="http://www.w3.org/2000/svg">
    <path d="M72 36C72 55.8823 55.8823 72 36 72C16.1177 72 0 55.8823 0 36C0 16.1177 16.1177 0 36 0C55.8823 0 72 16.1177 72 36ZM14.4 36C14.4 47.9294 24.0707 57.6 36 57.6C47.9294 57.6 57.6 47.9294 57.6 36C57.6 24.0707 47.9294 14.4 36 14.4C24.0707 14.4 14.4 24.0707 14.4 36Z" fill="#FCE1D0"/>
    <path d="M36 0C44.7664 1.04538e-07 53.2315 3.19871 59.8072 8.996C66.383 14.7933 70.6174 22.7908 71.7161 31.488C72.8148 40.1852 70.7023 48.9845 65.7749 56.235C60.8475 63.4855 53.4438 68.6889 44.9528 70.869C36.4619 73.0491 27.4672 72.0561 19.6563 68.0762C11.8455 64.0964 5.75515 57.4032 2.52804 49.2525C-0.699067 41.1017 -0.841204 32.0535 2.1283 23.8054C5.0978 15.5573 10.9749 8.67617 18.6569 4.45295L25.5941 17.0718C20.9849 19.6057 17.4587 23.7344 15.677 28.6833C13.8953 33.6321 13.9806 39.061 15.9168 43.9515C17.8531 48.8419 21.5073 52.8578 26.1938 55.2457C30.8803 57.6336 36.2771 58.2295 41.3717 56.9214C46.4663 55.6133 50.9085 52.4913 53.8649 48.141C56.8214 43.7907 58.0889 38.5111 57.4297 33.2928C56.7705 28.0745 54.2298 23.276 50.2843 19.7976C46.3389 16.3192 41.2598 14.4 36 14.4V0Z" fill="url(#paint0_angular)"/>
    <defs>
        <radialGradient id="paint0_angular" cx="0" cy="0" r="1" gradientUnits="userSpaceOnUse" gradientTransform="translate(36 36) rotate(-90) scale(36)">
            <stop stop-color="#ED6D43"/>
            <stop offset="1" stop-color="#ED3751"/>
        </radialGradient>
    </defs>
</svg>
