<svg width="72" height="72" viewBox="0 0 72 72" fill="none" xmlns="http://www.w3.org/2000/svg">
    <path d="M72 36C72 55.8823 55.8823 72 36 72C16.1177 72 0 55.8823 0 36C0 16.1177 16.1177 0 36 0C55.8823 0 72 16.1177 72 36ZM14.4 36C14.4 47.9294 24.0707 57.6 36 57.6C47.9294 57.6 57.6 47.9294 57.6 36C57.6 24.0707 47.9294 14.4 36 14.4C24.0707 14.4 14.4 24.0707 14.4 36Z" fill="#FCE1D0"/>
    <path d="M36 0C43.4093 8.83556e-08 50.6382 2.2862 56.7002 6.54661C62.7621 10.807 67.3619 16.8341 69.8717 23.8054C72.3815 30.7767 72.6792 38.3527 70.7241 45.4994C68.7689 52.6462 64.6563 59.0156 58.9473 63.7385C53.2383 68.4614 46.211 71.3077 38.8245 71.889C31.438 72.4704 24.052 70.7584 17.6745 66.9867C11.297 63.215 6.23853 57.5674 3.18948 50.8145C0.140428 44.0616 -0.750714 36.5324 0.63766 29.2543L14.7826 31.9526C13.9496 36.3194 14.4843 40.837 16.3137 44.8887C18.1431 48.9405 21.1782 52.329 25.0047 54.592C28.8312 56.855 33.2628 57.8822 37.6947 57.5334C42.1266 57.1846 46.343 55.4768 49.7684 52.6431C53.1938 49.8093 55.6614 45.9877 56.8344 41.6997C58.0075 37.4116 57.8289 32.8661 56.323 28.6833C54.8171 24.5005 52.0573 20.8842 48.4201 18.328C44.7829 15.7717 40.4456 14.4 36 14.4V0Z" fill="url(#paint0_angular)"/>
    <defs>
        <radialGradient id="paint0_angular" cx="0" cy="0" r="1" gradientUnits="userSpaceOnUse" gradientTransform="translate(36 36) rotate(-90) scale(36)">
            <stop stop-color="#ED6D43"/>
            <stop offset="1" stop-color="#ED3751"/>
        </radialGradient>
    </defs>
</svg>
