<svg width="133" height="87" viewBox="0 0 133 87" fill="none" xmlns="http://www.w3.org/2000/svg">
    <path d="M130.652 2.90996C131.029 2.23117 130.237 1.74093 128.578 2.19346C124.392 3.32478 10.9581 32.7769 5.26373 34.2476C0.738444 35.4166 -0.619142 33.3425 1.49266 31.8718C2.36001 31.2684 1.60579 32.362 2.51085 33.0031C3.00109 33.3425 4.39638 32.8523 5.37686 32.6637C10.4678 31.721 126.504 1.40153 129.219 0.760448C131.18 0.30792 132.273 0.873581 132.462 1.70322C132.839 3.32478 130.275 3.62646 130.652 2.90996Z" fill="#8D949A"/>
    <path d="M47.5752 55.8559C47.5752 49.8599 49.0459 43.2983 49.3853 41.9784C49.4984 41.4881 49.5361 40.7716 48.9705 40.7716C48.4048 40.8094 48.0277 41.1488 47.4997 41.4127C47.2358 40.8471 46.6324 40.0551 45.5388 40.0929C45.3125 40.0929 45.0485 40.1683 44.8223 40.2437C44.0304 40.5077 43.2007 41.1488 42.2957 42.1669C38.2983 46.6545 35.6963 54.3098 35.6963 58.7597C35.6963 60.4944 36.0357 62.2291 36.7145 63.021C37.0539 63.3981 37.5064 63.6621 37.9589 63.7752C38.1852 63.8129 38.3737 63.8506 38.6 63.8506C38.7509 63.8506 38.9394 63.8129 39.0903 63.7752C39.769 63.5866 40.4478 63.1718 41.0135 62.4553C41.9563 61.3617 43.3516 58.7974 44.2943 56.6102C44.3698 58.0055 44.5583 59.627 45.124 60.6075C45.3125 60.9092 45.6896 61.4371 46.2553 61.5503C46.3684 61.588 46.4438 61.588 46.557 61.588C46.5947 61.588 46.6701 61.588 46.7078 61.588H46.7832L46.8587 61.5503C47.1981 61.4371 47.5752 61.1354 47.5374 60.4189C47.5752 59.3253 47.5752 58.0809 47.5752 55.8559ZM44.7846 48.4269C44.5206 49.7845 44.2189 52.6882 44.2189 52.7637C42.7105 56.3085 40.5987 60.1927 40.0707 60.1927C39.0525 60.2304 39.3919 58.2694 39.5428 56.8364C40.033 52.3111 43.427 43.1097 45.4256 42.9966C45.6142 42.9966 45.8405 43.1474 46.0667 43.336C45.6519 44.3542 45.2371 46.1266 44.7846 48.4269Z" fill="#8D949A"/>
    <path d="M59.9066 56.6855C59.9066 56.5724 59.9066 56.4216 59.9066 56.2707C59.7934 54.4983 59.6803 49.2565 60.3214 43.6376C60.4345 43.4114 61.9806 40.0928 62.0184 37.7548C62.0184 36.3217 61.1887 35.8692 60.5476 35.7184C60.3591 35.6807 60.2082 35.6807 60.0197 35.6807C59.8311 35.6807 59.6803 35.7184 59.5294 35.7561L59.4163 35.7938H59.3786C58.9261 35.9446 58.6244 36.2086 58.4735 36.3972C58.0587 37.0005 57.5308 37.9433 57.0405 41.0356C56.7389 42.7326 56.7011 43.4114 56.6634 43.9016L56.588 45.3346C56.0223 46.0134 54.7779 47.4087 53.8728 47.8989L54.1368 45.7117C54.4385 43.1474 54.7025 40.7716 54.7402 40.3945C54.7779 39.9797 54.7779 39.3763 54.5893 38.9992C54.4385 38.6975 54.2122 38.509 53.9106 38.4713H53.8728C53.8351 38.4713 53.722 38.4713 53.6466 38.4713H53.458L53.3449 38.509C52.025 38.9238 51.4594 39.7534 51.3839 40.3568V40.4699C51.1954 41.7521 51.0445 43.0343 50.856 44.4296L50.7806 45.0706C50.592 46.5414 50.3657 48.276 50.1395 49.8222L49.3853 49.8976C49.3853 49.8976 48.8196 50.2747 48.7819 50.9535C48.7442 51.7077 48.8573 52.3865 50.0263 52.3111C49.6869 56.233 49.5361 58.2317 49.5361 58.6465C49.5361 58.8351 49.5361 59.0236 49.4984 59.2122C49.4607 60.0795 49.423 60.6075 50.0641 60.7583C50.1395 60.7583 50.2526 60.7583 50.328 60.7583C50.4789 60.7583 50.6674 60.7206 50.8183 60.6452C51.8742 60.2304 52.7038 58.8351 52.8169 57.2512C53.0432 54.7246 53.3072 52.0094 53.3826 51.406C54.0991 50.9912 55.683 49.7091 56.5126 48.7286C56.5126 50.237 56.5126 55.6296 57.4931 57.402C57.6439 57.666 58.0587 58.0808 58.5867 58.194C58.6998 58.2317 58.7752 58.2317 58.8884 58.2317C59.2278 58.2317 59.5294 58.0431 59.6803 57.8169C59.8311 57.6283 59.8688 57.3643 59.8688 57.0249L59.9066 56.6855Z" fill="#8D949A"/>
    <path d="M73.1431 31.8341C73.0676 31.8341 72.9545 31.7964 72.8037 31.7964C72.7282 31.7964 72.6905 31.7964 72.6151 31.7964C72.502 31.7964 72.3511 31.8341 72.238 31.8718H72.2003C71.2575 32.1735 70.6919 33.1917 70.0508 35.6052C69.636 37.3399 69.5982 38.3958 69.2588 41.2618L69.0326 43.7884C68.3161 45.5231 66.4683 52.4996 64.9221 52.575C64.545 52.575 65.073 48.3137 66.2043 42.9588C67.0716 38.8483 68.2784 35.7937 68.2784 35.756V35.7183C68.5046 35.0395 68.6932 34.4738 68.5423 34.0213C68.4292 33.6442 68.0898 33.5311 67.9013 33.4934H67.8636C67.8258 33.4934 67.7504 33.4934 67.7127 33.4557H67.675C67.5996 33.4557 67.5619 33.4557 67.4864 33.4557C67.2602 33.4557 66.9962 33.5311 66.7699 33.6065C65.4501 34.0213 64.4319 35.4166 63.7908 37.7547C62.6595 41.752 61.9053 46.4659 61.8298 50.3124C61.7167 54.3474 62.7349 55.8558 64.3942 55.7804C64.545 55.7804 64.7336 55.7427 64.8844 55.705C65.5632 55.4787 66.2043 54.9131 66.9208 53.8572C67.7881 52.6127 68.8817 49.8221 69.1457 48.5022C69.2211 49.973 69.7114 52.5373 70.4279 53.5555V53.5932C70.9935 54.272 71.2952 54.4605 71.5969 54.4982C71.6723 54.5359 71.7855 54.5359 71.8609 54.5359C71.8986 54.5359 71.974 54.5359 72.0117 54.4982H72.0872L72.1626 54.4605C72.3134 54.3851 72.502 54.272 72.6151 54.008C72.6905 53.7817 72.7659 53.4046 72.5774 52.2356C72.1249 48.4268 72.4265 42.8833 72.8414 39.8665C73.2185 38.7729 74.2744 36.4348 74.4252 34.6247C74.5006 33.6819 74.5006 33.0408 74.2744 32.5883C74.0104 32.2489 73.6333 31.9472 73.1431 31.8341Z" fill="#8D949A"/>
    <path d="M104.028 22.859C103.953 22.859 103.84 22.8213 103.689 22.8213C103.613 22.8213 103.576 22.8213 103.5 22.8213C103.387 22.8213 103.236 22.859 103.123 22.8967H103.085C102.105 23.1984 101.426 24.2166 100.596 26.6678C100.031 28.4025 99.8799 29.4961 99.3143 32.3998L98.8994 34.4739C97.9944 36.2086 95.5055 43.7884 93.9593 43.8639C93.5822 43.8639 94.4496 39.5271 96.0334 34.1722C97.2402 30.024 98.7486 26.9318 98.7486 26.894V26.8563C99.0503 26.1775 99.2766 25.5742 99.1634 25.1216C99.0503 24.7445 98.7486 24.6314 98.56 24.5937H98.5223C98.4846 24.5937 98.4092 24.5937 98.3715 24.556H98.3338H98.2961C98.2206 24.556 98.1452 24.556 98.1075 24.556C97.8812 24.556 97.6173 24.5937 97.3533 24.6691C95.958 25.0839 94.8267 26.5169 93.9593 28.855C92.4509 32.8901 91.3196 37.6416 90.9048 41.5635C90.4522 45.674 91.3573 47.1824 93.092 47.107C93.2805 47.107 93.4314 47.0693 93.5822 47.0316C94.2987 46.8053 95.0152 46.2396 95.8072 45.1837C96.7876 43.9393 98.1452 41.111 98.5223 39.7534C98.4846 41.2618 98.4846 42.3554 98.5978 43.4113C98.6732 44.2787 99.2388 44.6935 99.5028 44.7312C99.5782 44.7689 99.6914 44.7689 99.7668 44.7689C99.8045 44.7689 99.8799 44.7689 99.9176 44.7312H99.993L100.068 44.6935C100.219 44.6181 100.446 44.505 100.559 44.241C100.672 44.0147 100.747 43.1851 100.974 41.8275C101.577 37.9056 102.218 33.946 103.048 30.4389C103.5 29.3452 104.594 27.3089 105.009 25.725C105.235 24.7822 105.197 24.1412 105.009 23.6509C104.895 23.2361 104.518 22.9721 104.028 22.859Z" fill="#8D949A"/>
    <path d="M130.84 20.2192C130.501 18.7108 129.785 17.8058 128.766 17.5795C128.578 17.5418 128.389 17.5418 128.201 17.5418C126.843 17.6172 124.09 19.201 123.864 23.4247C123.864 23.8395 124.09 25.6496 125.335 25.5742C126.353 25.5364 126.881 24.6691 126.805 23.8772C126.768 23.5378 126.466 23.3492 126.277 23.0853C126.051 22.859 125.825 22.595 125.749 22.2933C125.636 21.9539 125.599 21.5768 125.674 21.2374C125.749 20.7095 126.315 19.7667 126.956 19.7667C128.314 19.8044 128.088 23.6132 127.597 26.4038C126.805 31.1176 124.543 36.1332 123.034 36.2086C121.79 36.284 121.375 30.4011 121.978 26.9695C122.28 25.3102 122.657 23.6132 123.298 21.9916C123.562 21.3506 123.789 20.6718 124.203 20.0684C125.561 17.9189 126.881 17.2024 126.994 17.0892C127.069 17.0138 127.107 16.9384 127.107 16.9007C127.107 16.7121 126.881 16.6367 126.655 16.6367C126.541 16.6367 126.466 16.6367 126.353 16.6367C124.882 16.7121 121.752 18.8994 120.017 22.859C119.414 24.2543 118.886 25.725 118.622 27.1957C118.584 27.3089 118.584 27.422 118.547 27.5728C118.132 30.7028 118.132 37.8301 122.808 37.9056C123.977 37.9056 125.674 36.7365 126.919 35.379C129.671 31.985 132.047 25.6119 130.84 20.2192Z" fill="#8D949A"/>
    <path d="M79.0637 41.7144C79.4785 35.9824 81.7034 30.4389 84.9843 25.6874C85.8139 24.4806 86.719 23.3116 87.6994 22.218C88.6799 21.1244 89.8112 20.2947 91.0557 19.5028C91.6968 19.088 92.8281 18.824 92.9035 19.8422C92.9789 20.5964 92.451 22.218 91.7345 22.5574C90.9426 22.9345 90.8294 21.7278 90.1129 21.69C88.4159 21.6146 88.0765 24.7069 89.5473 25.348C90.4523 25.7628 91.9985 25.0086 92.7527 24.3298C93.0544 24.0658 93.356 23.7264 93.62 23.387C94.3365 22.4065 94.9022 20.9735 95.053 19.7668C95.2793 17.9944 95.2039 16.3728 92.3001 16.5237C90.1129 16.6368 87.1715 18.2584 84.3809 21.049C80.195 25.1971 77.065 31.1554 75.5566 39.6026C74.463 45.7118 74.9909 48.9172 75.6697 51.4061C76.6502 55.064 78.7997 56.3839 80.9492 56.2708C83.5135 56.1199 84.2678 54.9509 84.6826 54.0081C83.589 54.4607 82.9102 54.423 82.4199 54.3475C80.459 54.1213 78.4226 50.501 79.0637 41.7144Z" fill="#8D949A"/>
    <path d="M120.885 39.7156C120.018 39.7156 117.717 39.4139 117.001 33.0785C116.888 32.1357 116.85 31.2307 116.85 30.3633C116.85 28.4024 117.038 26.5923 117.189 25.1592V25.1215C117.491 22.5572 117.453 22.4441 116.812 22.1801H116.774C116.624 22.1047 116.473 22.067 116.246 21.9915C116.133 21.9538 115.982 21.9538 115.869 21.9538C115.04 22.0293 114.549 22.7081 114.172 23.3114V23.3491C113.267 25.0461 112.061 26.6677 110.703 36.0576C110.778 30.2125 111.382 26.6677 111.419 25.6118C111.457 24.8953 111.457 24.1788 111.495 23.5754L111.457 24.8198C111.57 21.9161 111.608 20.8979 111.155 20.4831H111.118C111.005 20.4077 110.892 20.3323 110.778 20.3323C110.703 20.3323 110.59 20.3323 110.514 20.3323C109.383 20.4077 107.762 22.2555 107.384 24.5182C106.781 27.7236 103.425 39.527 103.425 39.527C103.01 41.0732 100.37 50.5763 97.7682 50.7648C97.014 50.8025 97.0894 50.086 97.4288 49.6712C97.8436 49.2187 98.6355 49.2941 98.9749 48.6907C99.4274 47.9365 99.1635 47.1069 98.2207 46.8429C97.4665 46.6166 96.5991 46.9937 96.0335 47.484C94.5628 48.8793 95.2793 52.3487 97.655 52.1978C100.069 52.047 101.766 49.9729 103.613 46.1264C105.461 42.2045 106.366 38.8859 108.516 29.1566C108.44 31.4192 108.139 33.6819 108.139 36.3593C108.139 38.3203 108.78 39.8664 109.119 40.4321C109.232 40.6206 109.383 40.8469 109.76 40.9223C109.836 40.9223 109.911 40.96 109.986 40.9223C110.137 40.9223 110.288 40.8846 110.439 40.8092C111.683 40.1681 111.57 39.0368 112.325 35.228C112.325 35.228 112.588 31.6078 113.569 29.1566C113.569 29.496 113.343 32.2112 113.38 34.1344C113.456 39.6402 116.435 41.0732 119.075 41.0732C120.885 41.0732 122.054 39.6025 122.054 39.6025C122.054 39.6025 121.451 39.7156 120.885 39.7156Z" fill="#8D949A"/>
    <path d="M90.3391 27.6483C90.1883 27.6106 89.9997 27.6106 89.8489 27.6106C89.2455 27.6483 88.6422 27.95 88.2273 28.1385C87.7371 28.4402 87.2092 28.8173 86.7189 29.3076C84.3808 31.6456 81.7411 36.4726 81.364 42.9212C81.1377 46.8054 82.3822 49.9731 84.3431 50.4256C84.3808 50.4256 84.4563 50.4256 84.494 50.4633C84.7202 50.501 84.9465 50.501 85.1728 50.501C86.6058 50.4256 87.9257 49.4828 88.9061 47.7858C89.3964 46.9562 89.3964 46.4282 89.3587 46.202C89.2832 45.8249 89.0193 45.674 88.8684 45.6363L88.4913 45.5609C88.4913 45.5609 87.3223 47.635 86.3041 47.6727C84.8334 47.7481 84.7957 41.639 85.399 38.7353C85.927 36.2841 86.7189 33.7197 88.3782 31.4948C88.8307 30.8537 89.1701 30.4766 89.6981 30.4389C89.8866 30.4389 90.0752 30.7029 89.9997 31.2685C89.9243 31.6834 89.9243 32.4753 90.6408 32.3244C91.2442 32.1736 91.395 31.3817 91.4705 30.9669C91.6967 29.9864 91.7722 28.7042 91.0179 28.0254C90.8294 27.8369 90.6031 27.7237 90.3391 27.6483Z" fill="#8D949A"/>
    <path d="M33.8108 34.4362C30.3414 31.3062 24.5717 30.9668 18.7265 33.418C18.2363 33.6443 17.7838 33.8328 17.3312 34.0214C7.45102 38.9992 1.90755 47.107 3.18971 55.0263C3.45369 56.6856 3.98164 57.1004 4.50959 57.3266C4.69814 57.4021 4.9244 57.4398 5.15067 57.3643C5.22609 57.3266 5.30151 57.2889 5.33922 57.2889C5.41464 57.2512 5.45235 57.2135 5.52778 57.2135C5.52778 57.1758 5.52778 57.1004 5.52778 57.0627C5.56549 52.8768 8.35608 46.1265 12.1272 41.7144C14.0127 39.5272 16.577 37.4531 19.0659 36.4349C21.7811 35.3413 24.4208 35.4544 26.2687 36.4349C28.5313 37.6416 29.3987 40.0174 29.3987 43.977C29.3609 57.7037 16.1245 70.2991 11.2598 71.3927C10.6941 71.5059 10.2416 71.5813 9.86451 71.5436C9.33656 71.5059 8.95945 71.2796 8.69548 70.9025C7.33789 68.9792 9.22343 62.7193 11.6369 57.1004C14.3144 50.9158 17.3689 44.9952 19.1036 41.9784C20.0841 40.2814 20.0464 40.2437 19.8201 40.0174C19.707 39.9043 19.5185 39.8289 19.1036 39.9797C18.01 40.3945 16.9918 41.2619 15.6342 42.808C12.278 46.6545 9.37427 51.5569 7.63958 56.2707C4.62272 64.7556 2.92574 70.45 4.9244 72.9389C5.52778 73.6554 6.43283 74.1079 7.60187 74.221C8.65777 74.3342 10.0908 74.1456 11.7123 73.7685C19.5939 71.9584 29.8135 64.7934 34.9044 52.7636C39.4674 41.9784 36.1489 36.5103 33.8108 34.4362Z" fill="#8D949A"/>
    <path d="M130.576 54.7621C130.954 54.1211 130.162 53.5931 128.502 54.0456C124.316 55.177 10.9958 84.629 5.26375 86.0998C0.700758 87.2688 -0.619117 85.1947 1.45497 83.724C2.32232 83.1206 1.5681 84.2142 2.47316 84.8553C2.9634 85.1947 4.3587 84.7045 5.33918 84.5159C10.4301 83.5731 126.391 53.2914 129.106 52.6503C131.067 52.1978 132.123 52.7635 132.349 53.5931C132.726 55.177 130.162 55.4786 130.576 54.7621Z" fill="#8D949A"/>
</svg>
