<svg width="99" height="43" viewBox="0 0 99 43" fill="none" xmlns="http://www.w3.org/2000/svg">
    <path fill-rule="evenodd" clip-rule="evenodd" d="M8.89095 10.4326C6.4918 11.6674 4.69244 12.9376 3.35175 14.3135C1.23485 16.6068 0 19.2177 0 21.5815C0 22.0049 0.0352815 22.4636 0.105845 22.8164C0.635068 25.2861 1.44654 26.4857 2.50499 27.4735C4.65716 29.4846 7.16215 29.6257 7.268 29.6257C7.58553 29.6257 7.86778 29.414 7.86778 29.0612C7.86778 28.7084 7.65609 28.532 7.40912 28.4967C7.30328 28.4614 5.82145 28.1792 4.44547 26.2034C3.84569 25.4272 3.28118 24.3688 2.99893 22.0049C2.50499 18.1592 5.36279 13.7138 9.70242 11.4205C12.8778 9.69166 17.1821 9.12715 21.2042 9.72693C25.2969 10.4326 27.3432 11.4204 29.8482 13.9254C32.2473 16.3951 33.835 20.5584 33.835 24.5452C33.835 24.7569 33.835 24.9686 33.7997 25.1097C33.7644 27.2619 33.2352 31.284 30.5891 34.7768C27.449 38.9753 22.2274 41.0569 15.1711 41.0569C12.2074 41.0569 9.38489 41.0922 7.55025 41.1628C13.0189 38.3403 16.5118 30.3314 19.1579 24.2982C19.8635 22.5694 20.5339 21.017 21.1689 19.888C24.0267 14.4547 27.3079 14.2782 27.4138 14.2782C27.6607 14.2782 27.8724 14.0313 27.8724 13.8196C27.8724 13.5021 27.6254 13.3257 27.4138 13.3257C27.0962 13.3257 23.0741 12.9023 18.7698 16.9596C17.1821 18.4415 15.8061 20.6995 14.6418 23.5573C12.5955 28.5673 10.902 32.4482 9.52601 35.0943C8.46757 37.2465 7.12687 39.5045 5.50392 40.316C3.66928 41.3039 1.55239 41.198 1.55239 41.198C1.51711 41.198 1.19957 41.1981 0.987883 41.4097C0.882038 41.5156 0.776194 41.6567 0.776194 41.9037C0.776194 42.2212 0.882038 42.4329 0.987883 42.5035C1.19957 42.6446 1.41126 42.6446 1.48182 42.6446C1.51711 42.6446 5.46864 42.7504 15.4886 42.7504C23.9914 42.7504 30.2716 40.7394 34.1525 36.8584C37.7865 33.3303 38.5627 28.8848 38.5627 25.8153C38.5627 21.3698 36.7634 16.8538 33.6939 13.7843C30.1657 10.2562 26.8845 8.80962 21.31 8.20983C17.1115 7.82174 12.4897 8.63321 8.89095 10.4326ZM51.758 19.9939H51.7933C46.3247 19.9939 40.609 25.0391 38.9508 31.2487C38.0688 34.5651 38.5274 37.7757 40.221 39.9279C41.5969 41.7273 43.6433 42.6799 46.0071 42.6799C51.4405 42.6799 57.1914 37.6346 58.8496 31.4251C59.7316 28.0381 59.273 24.898 57.5795 22.6752C56.2035 20.9817 54.1572 19.9939 51.758 19.9939ZM44.1372 40.9158C43.4669 40.5983 43.0082 39.9985 42.7612 39.1164C41.9497 36.6467 42.6554 32.7305 44.49 29.0965C47.0303 23.9807 51.4405 20.5584 53.8043 21.7932C54.4041 22.1107 54.8275 22.6753 55.145 23.522C55.9212 25.9917 55.1803 29.908 53.3457 33.5772C50.6643 38.7636 46.4658 42.1507 44.1372 40.9158ZM91.3086 20.2408C88.0274 20.3467 81.712 22.5341 78.5367 30.5077C76.8432 34.7415 77.6194 37.5288 78.572 39.1517C79.948 41.4097 82.2413 42.4329 83.9348 42.6446C90.3207 43.3502 95.3307 35.3766 95.4718 35.1296C95.613 34.8827 95.5777 34.424 95.1543 34.1417C94.6956 33.8948 94.2723 34.1065 94.1311 34.3534C94.1311 34.3887 89.7915 41.1981 84.711 41.0922C82.6999 41.0569 81.7473 39.7515 81.6062 36.9996V36.6467C81.6062 35.0238 82.1001 33.3303 82.3824 32.6952C84.0759 32.8011 92.7199 33.1186 95.6835 26.9796C96.4597 25.3566 96.4597 23.6984 95.5777 22.393C94.7309 21.017 93.108 20.2408 91.3086 20.2408ZM90.1796 21.8991C91.1675 21.5463 91.979 21.6521 92.6846 22.1108C93.108 22.3577 93.3902 22.7811 93.4608 23.275C93.6019 24.0865 93.3549 25.5683 91.3792 28.1439C88.7331 31.4603 84.4287 31.3545 83.0527 31.2487C85.1696 25.4272 88.1333 22.5694 90.1796 21.8991Z" fill="#8D949A"/>
    <path fill-rule="evenodd" clip-rule="evenodd" d="M73.3856 20.6994C73.2445 20.9464 73.1386 21.2639 73.1386 21.5109C73.1386 21.8284 73.2445 22.0754 73.3856 22.3224C73.6326 22.6399 74.056 22.6752 74.3735 22.6752C74.4088 22.6752 74.5852 22.6752 74.691 22.7105C75.8553 23.1338 76.2787 24.7921 76.314 26.3797C76.3493 27.2618 75.9612 30.2607 75.5025 31.2839C72.7505 37.317 68.4462 41.445 65.3414 40.9863C64.7416 40.8804 64.3535 40.6335 64.1771 40.2101C63.4715 38.8341 64.3888 35.6588 66.5763 31.4603C67.1761 30.3313 70.1044 24.6157 68.3756 21.5815C67.8111 20.523 66.7527 19.9585 65.2003 19.8526C60.7901 19.6057 59.1319 22.781 59.026 22.9221C58.9202 23.1691 58.9202 23.5219 59.2377 23.8042C59.6611 24.1217 60.0139 23.91 60.155 23.7689C60.1903 23.7336 62.413 21.0522 64.4947 21.5109C64.7064 21.5462 64.8122 21.6167 64.8475 21.8284C65.5531 23.5219 62.8364 29.0964 61.9897 30.8605C61.1782 32.5893 59.026 37.7051 60.8607 40.5276C61.6721 41.8683 63.154 42.5387 65.2709 42.574C72.8211 42.7856 77.69 31.0016 78.3603 27.8616C78.3603 27.7204 79.3835 23.4161 77.8664 21.2286C77.3724 20.4524 76.6315 20.0644 75.7848 19.8879C74.1971 19.7468 73.562 20.3466 73.3856 20.6994ZM97.1301 36.9642H97.3418C97.6593 36.9642 97.9416 36.9642 97.9416 37.317C97.9416 37.5287 97.7299 37.7404 97.4829 37.7404H97.1301V36.9642ZM96.9537 38.7636H97.1654V37.8815H97.4829L98.0827 38.7636H98.3297L97.7299 37.8815C97.871 37.8462 98.1885 37.6698 98.1885 37.317C98.1885 37.07 98.0827 36.9642 97.9416 36.8583C97.8357 36.7525 97.624 36.7525 97.3771 36.7525H96.9537V38.7636ZM97.5182 36.1527C96.6361 36.1527 96.0011 36.8584 96.0011 37.7757C96.0011 38.693 96.6714 39.3986 97.5182 39.3986C98.3297 39.3986 99 38.693 99 37.7757C99 36.8584 98.3297 36.1527 97.5182 36.1527ZM97.5182 36.2939C98.2238 36.2939 98.8589 36.9642 98.8589 37.7757C98.8589 38.5872 98.2591 39.2575 97.5182 39.2575C96.742 39.2575 96.1775 38.5872 96.1775 37.7757C96.1775 36.9642 96.742 36.2939 97.5182 36.2939Z" fill="#8D949A"/>
    <path fill-rule="evenodd" clip-rule="evenodd" d="M45.7603 11.2441C45.7603 11.2441 49.5001 12.6906 53.875 15.0898C60.9666 19.0766 66.8586 19.0413 70.1751 14.3136C72.3625 11.2441 74.1266 7.68067 77.0903 6.4811C77.0903 6.4811 76.6316 6.12828 76.3846 5.81074C75.7849 5.21096 74.9028 4.54061 73.9855 4.47005C71.1277 4.22308 68.8344 7.99821 67.9876 7.53955C66.8586 6.93976 70.3515 3.97611 66.6117 1.15359C62.3073 -2.12759 53.3105 6.16356 47.9477 4.99927C47.9477 4.99927 50.4174 7.96292 56.2389 8.42158C59.1672 8.63327 59.0967 9.30361 59.0967 9.55059C59.1672 12.479 45.7603 11.2441 45.7603 11.2441Z" fill="#8D949A"/>
</svg>
