<svg width="133" height="31" viewBox="0 0 133 31" fill="none" xmlns="http://www.w3.org/2000/svg">
    <path d="M0.5 30.5671H30.7472V0.319946H0.5V30.5671ZM19.8708 2.61209C25.2191 4.36489 29.0843 9.44355 29.0843 15.4211C29.0843 21.3087 25.309 26.3874 19.8708 28.2301V2.61209ZM15.6011 1.93793C16.5449 1.93793 17.5787 2.07275 18.4326 2.25253C18.4326 9.12893 11.7809 14.7469 4.94945 14.7469H2.07303C2.61236 7.69074 8.4101 1.93793 15.6011 1.93793ZM4.99438 16.1851C11.8258 16.1851 18.4775 21.8031 18.4775 28.6795C17.6236 28.8593 16.5449 28.9941 15.646 28.9941C8.45504 28.9941 2.43256 23.1964 2.1629 16.1851H4.99438ZM40.9045 18.1177V16.2301H47.1966V13.8031H40.9045V10.2525H47.6012V7.82557H38.3427V18.0278C38.3427 20.5896 39.4214 22.3874 42.0281 22.7469C42.0731 22.7469 42.118 22.7469 42.1629 22.7919H42.2079C42.4776 22.8368 42.7472 22.8368 43.0168 22.8368H47.7809V20.4098H43.0168C42.2079 20.3649 40.9045 19.9604 40.9045 18.1177ZM49.5786 22.7919H52.1405V7.82557H49.5786V22.7919ZM59.736 11.6009C56.4551 11.6009 54.0281 13.848 54.0281 17.3537V17.4436C54.0281 20.8593 56.3652 23.0615 59.7809 23.0615C61.3989 23.0615 62.9719 22.6121 64.3652 21.1289L62.7921 19.6009C61.9831 20.4098 61.1742 20.8593 59.8708 20.8593C57.9382 20.8593 56.6798 19.7357 56.5899 18.0278H65.0393C65.0843 17.5784 65.0843 17.1289 65.0843 17.1289C65.1292 14.0278 62.9719 11.6009 59.736 11.6009ZM56.6798 16.1851C56.7697 14.8817 58.118 13.8031 59.736 13.8031C61.2641 13.8031 62.4776 14.8817 62.4776 16.1851H56.6798ZM72.3652 13.9379C73.5337 13.9379 74.3876 14.3874 75.1068 15.1065L76.7247 13.4436C75.4663 12.0952 73.9832 11.5559 72.3652 11.5559C69.0843 11.5559 66.4326 13.9829 66.4326 17.3087C66.4326 20.6346 69.0843 23.0615 72.3652 23.0615C73.9832 23.0615 75.4663 22.5222 76.7247 21.1739L75.1068 19.511C74.3876 20.275 73.4888 20.6795 72.3652 20.6795C70.4775 20.6795 69.0393 19.2413 69.0393 17.2638C69.0393 15.2863 70.4775 13.9379 72.3652 13.9379ZM80.9045 18.1177V14.2975H83.2416V11.9604H80.9045V7.82557H78.3427V18.2975C78.4326 20.7245 79.5113 22.3874 82.0281 22.7469C82.0731 22.7469 82.118 22.7469 82.1629 22.7919H82.2079C82.4776 22.8368 82.7472 22.8368 83.0169 22.8368H83.2865V20.4098H83.0169C82.2079 20.3649 80.9045 19.9604 80.9045 18.1177ZM87.9607 13.5784V11.9604H85.3989V22.7919H87.9607V17.084C87.9607 15.2862 89.0843 14.1626 90.882 14.1626C91.2865 14.1626 91.6461 14.2076 91.9607 14.2525V11.7806C91.691 11.7357 91.4663 11.7357 91.1967 11.7357C89.6236 11.7357 88.5 12.4548 87.9607 13.5784ZM98.2528 11.6458C94.9719 11.6458 92.3652 14.1177 92.3652 17.3986C92.3652 20.6346 94.9719 23.1514 98.2528 23.1514C101.534 23.1514 104.14 20.6795 104.14 17.3986C104.185 14.1177 101.534 11.6458 98.2528 11.6458ZM98.2528 20.7694C96.3202 20.7694 94.882 19.2862 94.882 17.3537C94.882 15.4211 96.3202 13.9379 98.2528 13.9379C100.14 13.9379 101.624 15.4211 101.624 17.3537C101.624 19.2862 100.14 20.7694 98.2528 20.7694ZM105.758 22.7919H108.32V7.82557H105.758V22.7919ZM117.624 18.2525C117.624 19.9604 116.635 20.7244 115.242 20.7244C113.893 20.7244 112.86 20.0054 112.86 18.2975V11.9604H110.253V18.4773C110.253 21.5784 112.5 23.0615 115.197 23.0615C117.893 23.0615 120.185 21.5784 120.185 18.4323V11.9604H117.579V18.2525H117.624ZM129.983 19.3312L128.365 17.0391L130.388 14.2975L132.096 11.9604H129.264L126.927 15.1964L124.545 11.9604H121.758L123.376 14.1626L125.534 17.084L123.287 20.1851L121.444 22.7919H124.23L126.972 18.9716L129.714 22.7919H132.5L129.983 19.3312Z" fill="#8D949A"/>
</svg>
