<svg width="124" height="130" viewBox="0 0 124 130" fill="none" xmlns="http://www.w3.org/2000/svg">
    <path d="M89.952 97.1337L89.9885 97.122M89.9885 97.122L112.302 89.9673C114.603 89.2298 117.128 89.7074 118.984 91.2311L119.04 91.2773C120.599 92.557 121.5 94.4493 121.5 96.4441C121.5 98.9727 120.057 101.288 117.764 102.44L80.8455 120.984C69.1147 126.877 55.6428 128.52 42.7997 125.624L28.6758 122.44C26.4339 121.935 24.141 121.679 21.8407 121.679C17.1898 121.679 12.6004 122.722 8.42262 124.728L1.5 128M89.9885 97.122C91.5553 97.9549 92.5844 99.5792 92.5844 101.401C92.5844 103.703 90.9409 105.69 88.6458 106.162L56.7824 112.725M89.9885 97.122C89.5753 96.9024 89.1247 96.7378 88.6458 96.6392L52.4945 89.1888C45.2537 87.6901 36.7407 87.5645 29.5 89.0632C26.0682 89.7735 22.8354 90.8953 19.5231 92M19.5231 92H15.5C13.2909 92 11.5 93.7944 11.5 96C11.5 98.2056 13.2909 100 15.5 100C17.7091 100 19.5231 98.2056 19.5231 96V92ZM19.5231 92C11.9963 82.5275 7.5 70.5388 7.5 57.5C7.5 26.8482 32.3482 2 63 2C77.7399 2 91.1378 7.74611 101.076 17.1205L63.2513 54.945L44.8136 36.5072L33.4999 47.8209L63.1983 77.5194L63.2956 77.4221L63.3486 77.4751L111.075 29.7491C115.797 37.9126 118.5 47.3907 118.5 57.5C118.5 65.1233 116.963 72.3876 114.182 79" stroke="#ED3751" stroke-width="4" stroke-miterlimit="10" stroke-linejoin="bevel"/>
</svg>
