<svg width="135" height="127" viewBox="0 0 135 127" fill="none" xmlns="http://www.w3.org/2000/svg">
    <path d="M88.5 70.009C88.5023 64.6316 86.452 59.2535 82.3492 55.1508C74.1482 46.9497 60.8518 46.9497 52.6508 55.1508C44.4497 63.3518 44.4497 76.6482 52.6508 84.8492C53.2439 85.4424 53.8637 85.9926 54.5063 86.5L108.29 125L98.52 79.5009L133.5 48.3638L86.6714 43.4819L67.5 1L48.3286 43.4819L1.5 48.3638L36.48 79.5009L26.7098 125L61.5 105.18M88.5 70H84.5C82.2909 70 80.5 71.7909 80.5 74C80.5 76.2091 82.2909 78 84.5 78C86.7091 78 88.5 76.2091 88.5 74V70Z" stroke="#249DDF" stroke-width="4" stroke-miterlimit="10" stroke-linejoin="bevel"/>
</svg>
