<svg width="132" height="118" viewBox="0 0 132 118" fill="none" xmlns="http://www.w3.org/2000/svg">
    <path d="M65.3122 9.92835C58.199 4.96535 49.359 2.09749 40.3 2H39.5C29.9 2 20.3 5.60316 13 12.7094C5.7 19.9157 2 29.2239 2 38.532C2 47.9403 5.1 57.2485 10.6 64.655C18 73.863 27.4 83.8718 37.2 92.8797C47 101.988 57.2 110.195 66 116C79.7396 106.858 96.7702 91.9218 110.621 77M68.5 60.0509C64.0053 62.9341 58.1255 64.5339 52.8185 65.4192L49 66.0562L49.4245 65.4986C53.1221 60.6412 55.5443 54.9707 56.5169 49.0035C53.6333 44.5346 52 39.438 52 34.0281C52 16.3395 69.4609 2 91 2C112.539 2 130 16.3395 130 34.0281C130 51.7167 112.539 66.0562 91 66.0562C82.2515 66.0562 75.0062 64.0457 68.5 60.0509ZM68.5 60.0509L65.7499 57.2985C64.2311 55.7784 64.2311 53.3138 65.7499 51.7937C67.2687 50.2736 69.7311 50.2736 71.2499 51.7937C72.7687 53.3138 72.7687 55.7784 71.2499 57.2985L68.5 60.0509Z" stroke="url(#paint0_linear)" stroke-width="4" stroke-miterlimit="10" stroke-linejoin="bevel"/>
    <defs>
        <linearGradient id="paint0_linear" x1="2.11693" y1="116" x2="130" y2="116" gradientUnits="userSpaceOnUse">
            <stop stop-color="#ED3751"/>
            <stop offset="1" stop-color="#249DDF"/>
        </linearGradient>
    </defs>
</svg>
