<svg width="24" height="24" viewBox="0 0 24 24" fill="none" xmlns="http://www.w3.org/2000/svg">
    <path d="M0 12C0 5.37258 5.37258 0 12 0C18.6274 0 24 5.37258 24 12C24 18.6274 18.6274 24 12 24C5.37258 24 0 18.6274 0 12Z" fill="url(#paint0_linear)"/>
    <path d="M0 12C0 5.37258 5.37258 0 12 0C18.6274 0 24 5.37258 24 12C24 18.6274 18.6274 24 12 24C5.37258 24 0 18.6274 0 12Z" fill="url(#paint1_radial)"/>
    <path d="M12.0046 5.44091C14.1433 5.44091 14.3966 5.45028 15.2377 5.48779C16.0194 5.52217 16.4415 5.65345 16.7229 5.76284C17.095 5.90662 17.3639 6.08166 17.6422 6.35984C17.9236 6.64114 18.0956 6.90682 18.2394 7.27877C18.3488 7.56007 18.4802 7.98515 18.5146 8.76343C18.5521 9.60735 18.5615 9.86052 18.5615 11.9953C18.5615 14.1332 18.5521 14.3864 18.5146 15.2272C18.4802 16.0086 18.3488 16.4306 18.2394 16.7119C18.0956 17.0838 17.9205 17.3526 17.6422 17.6308C17.3608 17.9121 17.095 18.084 16.7229 18.2278C16.4415 18.3372 16.0163 18.4685 15.2377 18.5028C14.3935 18.5403 14.1402 18.5497 12.0046 18.5497C9.86586 18.5497 9.61259 18.5403 8.77148 18.5028C7.98979 18.4685 7.56767 18.3372 7.28626 18.2278C6.91417 18.084 6.64527 17.909 6.36698 17.6308C6.08557 17.3495 5.9136 17.0838 5.76976 16.7119C5.66033 16.4306 5.529 16.0055 5.49461 15.2272C5.45709 14.3833 5.4477 14.1301 5.4477 11.9953C5.4477 9.85739 5.45709 9.60422 5.49461 8.76343C5.529 7.98203 5.66033 7.56007 5.76976 7.27877C5.9136 6.90682 6.0887 6.63802 6.36698 6.35984C6.64839 6.07853 6.91417 5.90662 7.28626 5.76284C7.56767 5.65345 7.99291 5.52217 8.77148 5.48779C9.61259 5.45028 9.86586 5.44091 12.0046 5.44091ZM12.0046 4C9.83147 4 9.55944 4.00938 8.70582 4.04688C7.85533 4.08439 7.27062 4.22192 6.76408 4.41883C6.23566 4.62512 5.78852 4.89705 5.34452 5.34401C4.89739 5.78785 4.62536 6.23481 4.41899 6.75991C4.222 7.26939 4.08442 7.85075 4.0469 8.70092C4.00938 9.55734 4 9.82926 4 12.0016C4 14.1739 4.00938 14.4458 4.0469 15.2991C4.08442 16.1492 4.222 16.7337 4.41899 17.2401C4.62536 17.7683 4.89739 18.2153 5.34452 18.6591C5.78852 19.103 6.23566 19.378 6.76096 19.5812C7.27062 19.7781 7.85221 19.9156 8.70269 19.9531C9.55631 19.9906 9.82834 20 12.0015 20C14.1746 20 14.4466 19.9906 15.3002 19.9531C16.1507 19.9156 16.7354 19.7781 17.242 19.5812C17.7673 19.378 18.2144 19.103 18.6584 18.6591C19.1024 18.2153 19.3776 17.7683 19.5808 17.2432C19.7778 16.7337 19.9154 16.1524 19.9529 15.3022C19.9904 14.4489 19.9998 14.177 19.9998 12.0047C19.9998 9.83239 19.9904 9.56046 19.9529 8.70717C19.9154 7.857 19.7778 7.27251 19.5808 6.76617C19.3838 6.23481 19.1118 5.78785 18.6647 5.34401C18.2206 4.90018 17.7735 4.62512 17.2482 4.42196C16.7386 4.22504 16.157 4.08752 15.3065 4.05001C14.4497 4.00938 14.1777 4 12.0046 4Z" fill="white"/>
    <path d="M12.0047 7.89136C9.73462 7.89136 7.89294 9.73234 7.89294 12.0015C7.89294 14.2707 9.73462 16.1117 12.0047 16.1117C14.2747 16.1117 16.1164 14.2707 16.1164 12.0015C16.1164 9.73234 14.2747 7.89136 12.0047 7.89136ZM12.0047 14.6677C10.532 14.6677 9.33752 13.4737 9.33752 12.0015C9.33752 10.5294 10.532 9.33539 12.0047 9.33539C13.4774 9.33539 14.6718 10.5294 14.6718 12.0015C14.6718 13.4737 13.4774 14.6677 12.0047 14.6677Z" fill="white"/>
    <path d="M17.2391 7.72885C17.2391 8.26021 16.8076 8.68842 16.2791 8.68842C15.7476 8.68842 15.3192 8.25708 15.3192 7.72885C15.3192 7.1975 15.7507 6.76929 16.2791 6.76929C16.8076 6.76929 17.2391 7.20062 17.2391 7.72885Z" fill="white"/>
    <defs>
        <linearGradient id="paint0_linear" x1="0" y1="0" x2="24" y2="24" gradientUnits="userSpaceOnUse">
            <stop stop-color="#3F75F9"/>
            <stop offset="1" stop-color="#E41681"/>
        </linearGradient>
        <radialGradient id="paint1_radial" cx="0" cy="0" r="1" gradientUnits="userSpaceOnUse" gradientTransform="translate(4.5 20.25) rotate(100.389) scale(15.25 13.8289)">
            <stop stop-color="#FFD35C"/>
            <stop offset="0.433486" stop-color="#FB7243"/>
            <stop offset="1" stop-color="#F8541C" stop-opacity="0"/>
        </radialGradient>
    </defs>
</svg>
