<svg width="133" height="47" viewBox="0 0 133 47" fill="none" xmlns="http://www.w3.org/2000/svg">
    <path d="M126.907 15.7354C124.595 15.7313 122.497 17.5963 119.888 19.7677C117.494 21.7571 112.595 26.7867 108.127 29.6518C109.372 27.6952 112.374 23.4674 112.825 21.4835C113.3 19.4037 111.776 18.5964 109.678 19.8826C107.393 21.2918 105.214 28.0647 101.986 28.0647C101.398 28.0647 100.987 27.7773 100.993 27.1206C101.007 25.1366 104.078 21.1825 109.592 19.007C110.447 18.6649 110.776 18.1135 110.78 17.6387C110.78 17.4882 110.755 16.4839 109.061 16.4839C103.616 16.4839 96.2656 22.8394 95.2353 27.7117C94.1749 28.7789 92.2663 30.3606 89.8472 31.3922C92.5782 27.5242 94.9288 24.4142 96.1616 21.1852C97.5846 17.4225 95.5595 16.9299 93.4798 18.03C91.4548 19.0999 90.0319 22.0704 89.4298 23.2019C88.8415 24.3239 88.3353 25.7605 86.5566 27.1903C84.7779 28.6201 82.9308 28.3807 84.2333 25.5895C85.4004 23.0966 88.0233 20.4819 90.2809 19.2779C90.8145 18.9905 91.2838 18.8208 91.2661 18.1011C91.2387 16.9587 89.9169 16.1664 88.0329 16.9792C85.4743 18.0874 84.2456 18.8263 82.077 18.8263C80.3558 18.8263 79.4636 18.3611 78.7289 18.056C77.7438 17.6374 77.0187 17.7823 76.6355 17.9055C76.2908 18.0231 75.7462 18.357 75.2905 18.8564C74.9293 19.2532 74.6242 19.9031 74.5517 20.3204C74.0455 23.3716 71.3747 28.8446 69.4127 28.8446C68.7354 28.8446 67.9897 28.653 68.1812 27.0932C68.4959 24.5401 71.5744 21.0894 72.2859 20.4025C72.9974 19.7102 74.3383 19.2395 74.434 18.4733C74.5161 17.8303 74.1248 17.1119 72.8605 17.1119C68.7107 17.1119 63.1653 22.864 62.6125 28.0304C61.9694 28.6324 61.195 29.2208 60.3098 29.2208C58.3943 29.2208 57.8497 27.4284 57.9865 26.0055C63.0271 21.4575 72.5883 11.3175 72.877 4.10004C72.9454 2.37606 72.1053 1.51406 70.6933 1.51406C67.1359 1.51406 62.15 6.71332 59.0496 10.7222C55.235 15.6588 52.8871 21.6202 52.058 26.1395C49.2668 28.5613 48.1339 28.7227 46.9189 28.7227C45.2305 28.7227 44.6407 27.5009 44.6941 26.5404C49.4008 22.2633 57.5829 12.0727 57.7471 7.03626C57.7964 5.54489 56.9535 4.84161 55.4443 4.84161C52.2358 4.84161 47.692 8.228 44.4246 12.6871C41.1614 17.1475 39.0447 22.3933 38.4454 27.1493C36.0031 29.3439 34.1765 29.79 32.6715 29.79C31.7616 29.79 31.0939 29.1496 30.9338 28.8815C33.0956 27.6336 38.0213 24.5031 38.0213 19.8375C38.0213 17.5197 36.4574 16.4853 34.9017 16.4853C30.9448 16.4853 24.722 21.4164 24.7631 28.222C24.7631 28.3424 24.7822 28.7611 24.8041 28.913C23.0117 29.5287 21.7776 30.158 22.0622 31.4469C22.3222 32.6154 23.7725 32.5552 25.6606 31.8888C26.0957 32.6961 27.9456 34.0274 30.5589 34.0274C34.0972 34.0274 36.798 32.3486 38.9325 30.5247C39.8287 32.6249 42.0384 33.7264 44.3507 33.7264C47.1556 33.7264 49.9331 31.8245 52.1223 30.1006C52.3768 31.711 54.0145 34.2189 56.8481 34.2189C59.4341 34.2189 61.4099 32.7139 62.971 31.0857C63.3815 32.7276 64.8865 34.0274 66.8486 34.0274C73.3928 34.0274 77.0624 24.7644 77.908 21.4396C78.0175 21.0155 78.4225 20.9197 78.7016 21.0196C79.9193 21.4437 80.5158 21.6544 82.0537 21.4793C79.5635 23.4359 77.3689 26.7744 77.3689 29.2139C77.3689 31.6494 79.4801 32.7809 81.0221 32.7809C82.5682 32.7809 84.6123 31.7821 85.9573 30.5234C85.6016 31.2403 85.1227 32.3362 84.3565 33.1093C82.9472 33.4965 78.8151 34.9879 76.1881 36.5846C73.6979 38.1034 71.2898 40.5169 71.2898 43.2944C71.2898 44.7803 72.5076 46.5234 75.3713 46.5234C80.1847 46.5234 83.5533 43.3765 88.0958 35.1124C91.8585 33.5349 94.116 32.0612 95.5937 30.8093C96.2423 31.9395 97.4902 32.4649 98.7407 32.4649C100.588 32.4649 101.696 31.9312 103.187 30.8599C102.982 31.3662 102.654 32.1269 102.148 32.8028C99.4577 33.922 96.2272 35.4024 94.5731 36.4012C90.1605 39.0611 89.1822 41.4459 89.1822 43.3245C89.1822 44.4738 90.1674 46.4715 93.1405 46.4715C99.5712 46.4715 103.553 38.4741 106.147 33.9521C108.049 32.9437 110.766 31.0734 113.559 28.9307C113.463 29.2728 113.418 29.6285 113.418 30.0322C113.418 32.0394 115.238 33.9275 118.22 33.9275C124.113 33.9275 125.947 29.5848 125.874 24.8972C125.847 23.3648 125.621 22.1443 125.6 21.5997C125.546 20.1685 126.022 19.3969 127.324 19.3969C128.638 19.3969 129.527 19.1643 129.527 18.0423C129.527 16.4894 128.419 15.7847 126.914 15.7847L126.907 15.7354ZM67.5327 7.46592C67.701 7.46592 67.7707 7.61638 67.7652 7.84898C67.7146 9.6961 62.9628 17.1598 58.5667 21.5039C61.2128 13.7255 66.4887 7.46592 67.5286 7.46592H67.5327ZM29.9542 26.1888C30.1457 22.8735 32.7727 20.3191 33.8098 20.3191C34.1929 20.3191 34.3708 20.538 34.3708 20.9936C34.3708 22.1757 32.7837 24.6468 29.961 26.1888H29.9542ZM52.2905 10.2078C52.4889 10.2078 52.5738 10.3624 52.567 10.6142C52.5327 11.9797 49.1122 18.2489 44.7215 22.5931C47.0283 15.5467 50.7827 10.2106 52.2878 10.2106L52.2905 10.2078ZM76.3099 42.3093C75.9733 42.3093 75.8036 42.0903 75.8036 41.7674C75.8036 39.752 80.2777 37.37 82.6242 36.5094C81.6117 38.1485 77.8957 42.3107 76.3058 42.3107L76.3099 42.3093ZM94.216 42.4202C93.8876 42.4202 93.7644 42.2231 93.7644 41.9002C93.7644 40.1215 97.8199 37.3659 100.164 36.5066C98.9459 38.6137 95.5596 42.4174 94.2119 42.4174L94.216 42.4202ZM118.655 29.6108C118.373 29.6108 117.944 29.5423 117.944 28.5941C117.944 27.9045 117.615 27.141 116.414 27.141C116.25 27.141 116.072 27.1548 115.87 27.189C118.442 25.1503 120.453 22.9064 122.328 21.3877C121.945 26.026 120.836 29.6108 118.647 29.6108" fill="#8D949A"/>
    <path d="M116.395 14.8762C116.309 15.6903 115.402 16.0556 115.322 16.7835C115.277 17.2077 115.577 17.4881 116.105 17.4813C117.454 17.4676 121.072 15.3797 121.386 12.1315C121.545 10.4937 120.522 9.07212 118.736 9.07212C116.93 9.07212 115.296 10.766 115.144 12.189C114.998 13.5805 116.478 14.084 116.395 14.8762ZM22.3741 37.7831C21.2153 37.7229 20.6721 36.3397 20.6721 34.6636C20.6721 32.8206 21.8624 28.8281 22.3345 26.9386C22.8134 25.0326 23.0186 21.9499 21.2946 20.1822C27.8484 17.5456 37.5492 8.56591 38.7943 6.60523C40.0394 4.64182 40.2857 2.14479 38.5617 0.896969C36.8514 -0.350861 34.0466 1.27736 32.391 3.66082C27.8348 10.2311 25.0846 13.4382 21.9787 16.1391C19.557 18.2462 18.3803 18.2804 17.2173 18.4418C17.2173 18.4418 21.6914 11.1176 23.3607 8.91888C25.3651 6.28914 22.8955 5.3068 20.5011 6.96783C20.0153 7.30579 16.2294 9.92323 11.6431 12.2903C3.47476 16.5044 1.50859 18.4473 1.50859 20.9758C1.50859 22.0977 2.28847 23.5097 3.93035 23.5097C7.13202 23.5097 10.2981 17.7878 11.8483 16.3635C12.4504 15.8025 13.85 14.5847 14.3932 14.5847C14.5711 14.5847 14.6942 14.6942 14.6942 15.0363C14.6942 16.1308 12.5694 19.2367 9.27606 22.7941C4.49819 27.9524 0.587769 30.0321 0.587769 33.3295C0.587769 35.4777 2.20227 36.6407 3.94814 36.6407C7.62869 36.6407 10.0915 31.7287 11.5637 29.2932C12.1521 28.3218 15.3989 22.2701 16.083 20.9607C16.7945 21.3397 17.2323 22.1292 16.9997 23.7328C16.5619 26.6197 13.9896 30.1169 13.9896 34.9933C13.9896 38.9749 17.6702 40.2241 19.1479 40.2268C20.5133 40.2268 22.3194 39.7001 22.7682 38.3332C22.8229 38.128 22.7545 37.7818 22.3906 37.7585L22.3741 37.7831ZM131.19 15.1417C131.956 15.1417 132.449 15.6342 132.449 16.4045C132.449 17.1707 131.956 17.6632 131.19 17.6632C130.417 17.6632 129.927 17.1707 129.927 16.4045C129.927 15.6301 130.414 15.1348 131.188 15.1348L131.19 15.1417ZM131.188 17.3513C131.77 17.3513 132.138 16.9778 132.138 16.3936C132.138 15.8093 131.768 15.4413 131.188 15.4413C130.603 15.4413 130.235 15.8107 130.235 16.3908C130.235 16.9709 130.604 17.3486 131.184 17.3486L131.188 17.3513ZM131.266 15.7478C131.462 15.7478 131.682 15.8436 131.682 16.1282C131.682 16.317 131.559 16.4291 131.422 16.4838C131.51 16.607 131.578 16.7821 131.682 16.7821H131.755C131.768 16.7958 131.782 16.8232 131.782 16.8779C131.782 16.9655 131.718 17.0284 131.591 17.0284C131.344 17.0284 131.317 16.7356 131.153 16.5222H131.006V17.0011C130.979 17.0202 130.911 17.0284 130.856 17.0284C130.774 17.0284 130.705 17.0147 130.705 16.8916V15.7642C130.733 15.7505 130.787 15.745 130.853 15.745H131.264L131.266 15.7478ZM131.01 15.9803V16.295H131.198C131.329 16.295 131.403 16.2334 131.403 16.1308C131.403 16.0351 131.335 15.9803 131.225 15.9803H131.012H131.01Z" fill="#8D949A"/>
</svg>
