<svg width="25" height="25" viewBox="0 0 25 25" fill="none" xmlns="http://www.w3.org/2000/svg">
    <path fill-rule="evenodd" clip-rule="evenodd" d="M8.8749 2.35002C5.27124 2.35002 2.3499 5.27137 2.3499 8.87502C2.3499 12.4787 5.27124 15.4 8.8749 15.4C9.83369 15.4 10.7423 15.1937 11.5605 14.8237L12.0173 14.6171L15.2169 17.8166H18.0582V20.2333H20.4142V22.65H22.6499V19.9896L14.6382 11.9779L14.8405 11.5228C15.1998 10.7145 15.3999 9.81911 15.3999 8.87502C15.3999 5.27137 12.4786 2.35002 8.8749 2.35002ZM0.899902 8.87502C0.899902 4.47055 4.47043 0.900024 8.8749 0.900024C13.2794 0.900024 16.8499 4.47055 16.8499 8.87502C16.8499 9.84779 16.6754 10.7812 16.3556 11.6447L24.0999 19.3889V24.1H18.9642V21.6833H16.6082V19.2666H14.6163L11.6888 16.3392C10.813 16.6695 9.86434 16.85 8.8749 16.85C4.47043 16.85 0.899902 13.2795 0.899902 8.87502Z" fill="url(#paint0_linear)"/>
    <path fill-rule="evenodd" clip-rule="evenodd" d="M7.0624 5.97502C6.46179 5.97502 5.9749 6.46191 5.9749 7.06252C5.9749 7.66313 6.46179 8.15002 7.0624 8.15002C7.66301 8.15002 8.1499 7.66313 8.1499 7.06252C8.1499 6.46191 7.66301 5.97502 7.0624 5.97502ZM4.5249 7.06252C4.5249 5.6611 5.66098 4.52502 7.0624 4.52502C8.46382 4.52502 9.5999 5.6611 9.5999 7.06252C9.5999 8.46395 8.46382 9.60002 7.0624 9.60002C5.66098 9.60002 4.5249 8.46395 4.5249 7.06252Z" fill="url(#paint1_linear)"/>
    <defs>
        <linearGradient id="paint0_linear" x1="2.0599" y1="21.3381" x2="23.5199" y2="21.3381" gradientUnits="userSpaceOnUse">
            <stop stop-color="#ED6D43"/>
            <stop offset="1" stop-color="#ED3751"/>
        </linearGradient>
        <linearGradient id="paint1_linear" x1="2.0599" y1="21.3381" x2="23.5199" y2="21.3381" gradientUnits="userSpaceOnUse">
            <stop stop-color="#ED6D43"/>
            <stop offset="1" stop-color="#ED3751"/>
        </linearGradient>
    </defs>
</svg>
