<svg width="93" height="45" viewBox="0 0 93 45" fill="none" xmlns="http://www.w3.org/2000/svg">
    <path d="M22.245 44.61C34.356 44.61 44.19 34.776 44.19 22.665C44.19 10.554 34.356 0.719971 22.245 0.719971C10.134 0.719971 0.300049 10.554 0.300049 22.665C0.300049 34.776 10.134 44.61 22.245 44.61Z" fill="#8D949A"/>
    <path d="M27.591 30.387H23.037V13.2271H21.354V32.1031H23.037H27.591V30.387Z" fill="white"/>
    <path d="M38.943 23.3579H27.624V21.6749H40.593C40.626 22.0049 40.626 22.3349 40.626 22.6649C40.626 32.7959 32.409 41.0459 22.245 41.0459C12.081 41.0459 3.86401 32.8289 3.86401 22.6649C3.86401 12.5009 12.081 4.28394 22.245 4.28394C22.509 4.28394 22.773 4.28393 23.037 4.31693V5.99994C22.773 5.99994 22.509 5.96693 22.245 5.96693C13.038 5.96693 5.54701 13.4579 5.54701 22.6649C5.54701 31.8719 13.038 39.3629 22.245 39.3629C31.221 39.3629 38.547 32.3009 38.943 23.4239V23.3579Z" fill="white"/>
    <path d="M15.381 18.3091C16.8 18.3091 17.955 17.1541 17.955 15.7351C17.955 14.3161 16.8 13.1611 15.381 13.1611C13.962 13.1611 12.807 14.3161 12.807 15.7351C12.807 17.1541 13.962 18.3091 15.381 18.3091Z" fill="white"/>
    <path d="M55.0801 33.423H70.7551V28.6709H60.8221V11.709H55.0801V33.423ZM89.7301 13.26C87.9481 11.874 85.6051 11.1479 82.8661 11.1479C79.5991 11.1479 76.8601 12.1709 74.9461 14.0519C72.9661 16.0319 71.9101 18.9689 71.9101 22.5329C71.9101 26.3279 73.0321 29.5289 75.0451 31.5419C76.6291 33.1259 78.7411 33.9509 81.1501 33.9509C86.4631 33.9509 87.6841 30.7829 87.6841 30.7829V33.39H92.4691V21.1469H82.9321V25.0079H87.3211C87.3211 25.0079 87.3541 29.8259 82.8331 29.8259C81.6781 29.8259 80.6551 29.397 79.8631 28.605C78.6421 27.384 77.9821 25.3049 77.9821 22.6319C77.9821 18.1769 79.7641 15.5369 82.7011 15.5369C84.5491 15.5369 85.9351 16.6589 86.2981 18.4079H92.4031C92.0731 15.8999 91.3801 14.613 89.7301 13.26Z" fill="#8D949A"/>
</svg>
