<svg width="19" height="27" viewBox="0 0 19 27" fill="none" xmlns="http://www.w3.org/2000/svg">
    <path fill-rule="evenodd" clip-rule="evenodd" d="M0.31665 9.87498C0.31665 4.80317 4.42817 0.69165 9.49998 0.69165C14.5718 0.69165 18.6833 4.80317 18.6833 9.87498C18.6833 11.4734 18.2743 12.9785 17.5547 14.289C16.769 15.72 15.7168 17.0204 14.7141 18.2596C14.5352 18.4807 14.3579 18.6999 14.1839 18.9175C13.0138 20.3812 11.9753 21.7965 11.3932 23.4045L10.7609 25.3014C10.357 26.5132 8.64296 26.5132 8.23903 25.3014L7.60673 23.4045C7.02466 21.7965 5.98616 20.3812 4.81604 18.9175C4.64207 18.6999 4.46474 18.4807 4.28583 18.2596C3.28315 17.0204 2.23097 15.72 1.44524 14.289C0.725637 12.9785 0.31665 11.4734 0.31665 9.87498ZM9.49998 2.14165C5.22898 2.14165 1.76665 5.60398 1.76665 9.87498C1.76665 11.2233 2.1111 12.489 2.71624 13.5911C3.43415 14.8986 4.39189 16.0835 5.39643 17.3264C5.57933 17.5527 5.76378 17.7809 5.94862 18.0121C7.12544 19.4842 8.30358 21.0639 8.9736 22.9206L8.97663 22.9289L9.49998 24.499L10.0233 22.9289L10.0264 22.9206C10.6964 21.0639 11.8745 19.4842 13.0514 18.0121C13.2362 17.7809 13.4206 17.5527 13.6035 17.3264C14.6081 16.0835 15.5658 14.8986 16.2837 13.5911C16.8889 12.489 17.2333 11.2233 17.2333 9.87498C17.2333 5.60398 13.771 2.14165 9.49998 2.14165ZM5.14998 9.87498C5.14998 7.47254 7.09755 5.52498 9.49998 5.52498C11.9024 5.52498 13.85 7.47254 13.85 9.87498C13.85 12.2774 11.9024 14.225 9.49998 14.225C7.09755 14.225 5.14998 12.2774 5.14998 9.87498ZM9.49998 6.97498C7.89836 6.97498 6.59998 8.27336 6.59998 9.87498C6.59998 11.4766 7.89836 12.775 9.49998 12.775C11.1016 12.775 12.4 11.4766 12.4 9.87498C12.4 8.27336 11.1016 6.97498 9.49998 6.97498Z" fill="url(#paint0_linear)"/>
    <defs>
        <linearGradient id="paint0_linear" x1="1.23498" y1="23.1723" x2="18.2242" y2="23.1723" gradientUnits="userSpaceOnUse">
            <stop stop-color="#ED6D43"/>
            <stop offset="1" stop-color="#ED3751"/>
        </linearGradient>
    </defs>
</svg>
