<svg width="168" height="46" viewBox="0 0 168 46" fill="none" xmlns="http://www.w3.org/2000/svg">
    <path d="M145.093 22.9999L122.962 45.5332H118.153L140.284 22.9999L118.153 0.466553H122.962L145.093 22.9999Z" fill="#ED6D43"/>
    <path d="M147.519 20.5443L167.238 0.466553H162.429L145.107 18.1032L147.519 20.5443Z" fill="black"/>
    <path fill-rule="evenodd" clip-rule="evenodd" d="M19.131 3.93322C24.763 3.93322 29.3453 8.59878 29.3453 14.3332C29.3453 17.9443 27.5294 21.1366 24.763 22.9999C27.5294 24.8632 29.3453 28.0554 29.3453 31.6666C29.3453 37.401 24.763 42.0666 19.131 42.0666H0.404785V38.5999H19.131C22.8904 38.5999 25.9405 35.4943 25.9405 31.6666C25.9405 27.8388 22.8904 24.7332 19.131 24.7332H0.404785V3.93322H19.131ZM3.80955 21.2666H19.131C22.8904 21.2666 25.9405 18.161 25.9405 14.3332C25.9405 10.5054 22.8904 7.39989 19.131 7.39989H3.80955V21.2666Z" fill="black"/>
    <path d="M32.75 3.93322H51.4762C57.1083 3.93322 61.6905 8.59878 61.6905 14.3332C61.6905 20.0677 57.1083 24.7332 51.4762 24.7332H36.1548V42.0666H32.75V21.2666H51.4762C55.2356 21.2666 58.2857 18.161 58.2857 14.3332C58.2857 10.5054 55.2356 7.39989 51.4762 7.39989H32.75V3.93322Z" fill="black"/>
    <path d="M105.952 3.93322H97.4405V7.39989H105.952C114.408 7.39989 121.274 14.391 121.274 22.9999C121.274 31.6088 114.408 38.5999 105.952 38.5999H97.4405V42.0666H105.952C116.28 42.0666 124.679 33.5154 124.679 22.9999C124.679 12.4843 116.28 3.93322 105.952 3.93322Z" fill="black"/>
    <path d="M57.5906 42.0666L48.4261 28.1999H52.526L61.6905 42.0666H57.5906Z" fill="black"/>
    <path d="M65.0953 42.0666H68.5V9.60989L89.9358 42.0666H94.0358L68.8547 3.93322H65.0953V42.0666Z" fill="black"/>
    <path d="M90.631 3.93322H94.0358V35.8554L90.631 30.6988V3.93322Z" fill="black"/>
    <path d="M167.238 45.5332H162.429L145.107 27.8966L147.519 25.4554L167.238 45.5332Z" fill="black"/>
</svg>
