<svg width="83" height="22" viewBox="0 0 83 22" fill="none" xmlns="http://www.w3.org/2000/svg">
    <path d="M71.493 10.9998L60.6597 21.8332H58.3055L69.1389 10.9998L58.3055 0.166504H60.6597L71.493 10.9998Z" fill="white"/>
    <path d="M72.6805 9.81928L82.3333 0.166504H79.9791L71.5 8.64567L72.6805 9.81928Z" fill="white"/>
    <path fill-rule="evenodd" clip-rule="evenodd" d="M9.83329 1.83317C12.5902 1.83317 14.8333 4.07623 14.8333 6.83317C14.8333 8.56928 13.9444 10.104 12.5902 10.9998C13.9444 11.8957 14.8333 13.4304 14.8333 15.1665C14.8333 17.9235 12.5902 20.1665 9.83329 20.1665H0.666626V18.4998H9.83329C11.6736 18.4998 13.1666 17.0068 13.1666 15.1665C13.1666 13.3262 11.6736 11.8332 9.83329 11.8332H0.666626V1.83317H9.83329ZM2.33329 10.1665H9.83329C11.6736 10.1665 13.1666 8.67345 13.1666 6.83317C13.1666 4.99289 11.6736 3.49984 9.83329 3.49984H2.33329V10.1665Z" fill="white"/>
    <path d="M16.5 1.83317H25.6666C28.4236 1.83317 30.6666 4.07623 30.6666 6.83317C30.6666 9.59012 28.4236 11.8332 25.6666 11.8332H18.1666V20.1665H16.5V10.1665H25.6666C27.5069 10.1665 29 8.67345 29 6.83317C29 4.99289 27.5069 3.49984 25.6666 3.49984H16.5V1.83317Z" fill="white"/>
    <path d="M52.3333 1.83317H48.1666V3.49984H52.3333C56.4722 3.49984 59.8333 6.86095 59.8333 10.9998C59.8333 15.1387 56.4722 18.4998 52.3333 18.4998H48.1666V20.1665H52.3333C57.3888 20.1665 61.5 16.0554 61.5 10.9998C61.5 5.94428 57.3888 1.83317 52.3333 1.83317Z" fill="white"/>
    <path d="M28.6597 20.1665L24.1736 13.4998H26.1805L30.6666 20.1665H28.6597Z" fill="white"/>
    <path d="M32.3333 20.1665H34V4.56234L44.493 20.1665H46.5L34.1736 1.83317H32.3333V20.1665Z" fill="white"/>
    <path d="M44.8333 1.83317H46.5V17.1804L44.8333 14.7012V1.83317Z" fill="white"/>
    <path d="M82.3333 21.8332H79.9791L71.5 13.354L72.6805 12.1804L82.3333 21.8332Z" fill="white"/>
</svg>
