<svg width="133" height="36" viewBox="0 0 133 36" fill="none" xmlns="http://www.w3.org/2000/svg">
    <path fill-rule="evenodd" clip-rule="evenodd" d="M93.9257 22.4824H90.5943L100.355 3.34142H104.183L113.943 22.4824H110.583L108.04 17.4561H96.5266L93.9257 22.4824ZM106.784 15.089L102.225 6.14682L97.6663 15.089H106.784ZM78.7298 2.81541L81.0092 0.185349H86.0355L78.7298 2.81541ZM72.2423 22.5117H89.367V20.3199H75.1938V13.6863H85.7141V11.4362H75.1938V5.44548H89.2793V3.3122H72.2423V22.5117ZM48.9516 3.34142H61.5467C64.9073 3.34142 67.6543 5.85459 67.6543 8.89378C67.6543 11.5531 65.5503 13.8032 62.8033 14.3292L68.7356 22.4824H65.258L59.4427 14.4461H51.6401V22.4824H48.9808V3.34142H48.9516ZM61.722 5.62081L62.0727 5.67926L62.4234 5.79615L62.8617 5.97149L63.3001 6.23449L63.5923 6.46828L63.8261 6.70206L64.0599 6.99429L64.3229 7.43263L64.6736 8.30932L64.7612 8.74766V9.33212L64.6736 9.77047L64.3229 10.6472L64.0599 11.0855L63.8261 11.3777L63.5923 11.6115L63.3001 11.8453L62.8617 12.1083L62.4234 12.2836L61.8974 12.459L61.5467 12.5174H51.7863V5.91304H61.5759L61.722 5.62081ZM32.5868 2.20173C27.1805 2.20173 22.7971 6.58517 22.7971 11.9914C22.7971 17.3977 27.1805 21.7811 32.5868 21.7811C37.993 21.7811 42.3765 17.3977 42.3765 11.9914C42.3765 6.58517 37.993 2.20173 32.5868 2.20173ZM32.5868 0.0100098C25.3979 0.0100098 19.5534 5.38703 19.5534 11.9914C19.5534 18.5958 25.3687 23.9728 32.5868 23.9728C39.8048 23.9728 45.6202 18.5958 45.6202 11.9914C45.6202 5.38703 39.8048 0.0100098 32.5868 0.0100098ZM0.5 22.5117V3.34142H2.95473V20.4076H17.4201V22.5117H0.5ZM115.317 22.5117H132.5V20.3199H118.035V3.34142H115.346L115.317 22.5117ZM53.6857 34.9606H52.2246L56.5204 27.5088H58.2153L62.5111 34.9606H61.0499L59.9394 33.0027H54.8839L53.6857 34.9606ZM59.2965 32.0968L57.2802 28.6193L55.2638 32.0968H59.2965ZM65.2288 27.5088H70.5182C71.9209 27.5088 73.0898 28.4731 73.0898 29.6713C73.0898 30.6941 72.2131 31.5708 71.0442 31.7753L73.5281 34.9314H72.067L69.6122 31.8046H66.6023V34.9606H65.1996V31.8338L65.2288 27.5088ZM70.5766 28.4147H70.635L71.0442 28.6193L71.6871 29.2622L71.8624 29.6128V30.1973L71.6871 30.548L71.0442 31.1909L70.635 31.3954H66.6899V28.8238H70.5182L70.5766 28.4147ZM43.7792 27.5088H49.0685C50.4712 27.5088 51.6401 28.4731 51.6401 29.6713C51.6401 30.4311 51.1726 31.074 50.5004 31.4831C50.0329 31.7461 49.5653 31.8046 49.0393 31.8338C48.7763 31.8338 48.4841 31.8338 48.1918 31.8338H45.1819V34.9899H43.7792V27.5088ZM49.127 28.4147H49.1854L49.5945 28.6193L50.179 29.2037L50.4128 29.6713V30.1389L50.179 30.6064L49.5945 31.1909L49.1854 31.3954H45.2111V28.8238H49.0393L49.127 28.4147ZM81.5352 32.5644L82.821 32.4767C82.8795 32.8566 83.0256 33.1488 83.2301 33.4118C83.4639 33.6456 83.8146 33.8502 84.2529 33.9963C84.7205 34.1424 85.2465 34.2301 85.831 34.2301C86.357 34.2301 86.8246 34.1716 87.2045 34.0547C87.6136 33.9378 87.9058 33.7917 88.0811 33.5872C88.2857 33.3826 88.3734 33.178 88.3734 32.9443C88.3734 32.7105 88.2857 32.5059 88.0811 32.3306C87.9058 32.1552 87.5844 32.0091 87.146 31.8922C86.8538 31.8046 86.2693 31.6877 85.305 31.5123C84.3698 31.3662 83.6977 31.1909 83.3178 31.0448C82.821 30.8694 82.4703 30.6356 82.2073 30.3726C81.9735 30.0804 81.8567 29.7882 81.8567 29.4375C81.8567 29.0576 82.0028 28.7069 82.295 28.3855C82.5872 28.064 83.0256 27.801 83.5808 27.6257C84.1653 27.4503 84.7789 27.3919 85.4803 27.3919C86.2401 27.3919 86.9122 27.4796 87.4967 27.6549C88.0811 27.8302 88.5195 28.0932 88.8409 28.4439C89.1624 28.7946 89.3377 29.2037 89.3377 29.6128L88.0519 29.7005C87.9935 29.2329 87.7305 28.853 87.3213 28.6193C86.9122 28.3855 86.2985 28.2686 85.5095 28.2686C84.6621 28.2686 84.0776 28.3855 83.6977 28.59C83.3178 28.8238 83.1132 29.0868 83.1132 29.3791C83.1132 29.6421 83.2594 29.8758 83.5224 30.0512C83.7854 30.2265 84.4575 30.4019 85.5972 30.5772C86.7077 30.7525 87.4675 30.9279 87.8766 31.074C88.461 31.2785 88.8994 31.5415 89.2208 31.8338C89.5131 32.1552 89.63 32.5059 89.63 32.8858C89.63 33.2657 89.4838 33.6456 89.1624 33.9963C88.8409 34.3469 88.4026 34.61 87.7889 34.8145C87.2045 35.0191 86.5323 35.1068 85.8018 35.1068C84.8666 35.1068 84.0776 35.0191 83.4347 34.8145C82.7918 34.61 82.3242 34.3177 81.9443 33.9378C81.769 33.5287 81.5644 33.0611 81.5352 32.5644ZM76.9472 29.7005H78.3207V34.9606H76.9472V29.7005ZM76.9472 27.5088H78.3207V28.8823H76.9472V27.5088ZM12.4522 10.0627H14.7316L18.1214 3.48754H15.2284L12.4522 10.0627Z" fill="#8D949A"/>
</svg>
