<svg width="160" height="22" viewBox="0 0 160 22" fill="none" xmlns="http://www.w3.org/2000/svg">
    <path d="M100.875 9.25744C101.512 9.57565 102.244 9.73476 103.103 9.73476C103.962 9.73476 104.694 9.57565 105.267 9.25744C105.903 8.93922 106.158 8.52553 106.158 8.14367C106.158 7.66635 105.839 7.25266 105.267 7.02991C104.694 6.77533 103.898 6.55258 103.103 6.55258C102.212 6.55258 101.512 6.71169 100.875 7.02991C100.239 7.34813 99.9842 7.76181 99.9842 8.14367C99.9842 8.52553 100.334 8.93922 100.875 9.25744Z" fill="#8D949A"/>
    <path d="M56.3247 9.25744C56.9611 9.57565 57.693 9.73476 58.4885 9.73476C59.2841 9.73476 60.0796 9.57565 60.7161 9.25744C61.3525 8.93922 61.6707 8.52553 61.6707 8.14367C61.6707 7.66635 61.3525 7.34813 60.7161 7.02991C60.0796 6.71169 59.3477 6.55258 58.4885 6.55258C57.6294 6.55258 56.8974 6.71169 56.3247 7.02991C55.6882 7.34813 55.4336 7.66635 55.4336 8.14367C55.4336 8.621 55.7519 9.00286 56.3247 9.25744Z" fill="#8D949A"/>
    <path d="M2.38664 0.761033C1.59109 0.379171 0.636436 0.697389 0.254574 1.49293C0.159109 1.74751 0.0954654 1.97026 0.0954654 2.22484C0 2.38395 0 2.54305 0 2.70216V19.7268C0 20.6178 0.731902 21.3179 1.59109 21.3179C2.45028 21.3179 3.18218 20.586 3.18218 19.7268V4.86605L20.6524 13.6489L24.3437 11.8032L2.38664 0.761033Z" fill="#8D949A"/>
    <path d="M158.409 17.9766H120.159C112.172 16.9265 111.44 13.4897 111.185 12.2168V11.1667C111.917 7.41174 114.781 5.3115 120.064 4.77053H158.218C159.109 4.77053 159.809 4.03863 159.809 3.17944C159.809 2.32025 159.077 1.58835 158.218 1.58835H119.745C111.185 2.47936 108.64 6.93441 107.908 10.6257C107.812 10.7849 107.749 11.0394 107.812 11.2622L107.908 12.6942V12.8533C108.162 14.2853 108.703 15.5581 109.499 16.6082L102.307 12.5987L81.8457 1.0792C81.3683 0.665517 80.5728 0.601873 80 0.920092L52.4105 16.9901V2.60665C52.4105 1.71564 51.6786 1.01556 50.8194 1.01556C50.6603 1.01556 50.5012 1.01556 50.3421 1.11102C50.0875 1.11102 49.8647 1.20649 49.7056 1.27013L25.2028 12.9487C25.0437 13.0442 24.9483 13.1078 24.8846 13.2033L22.2434 14.4762L25.0437 15.9082C25.2983 16.0673 25.5211 16.0673 25.7756 16.0673C26.0302 16.0673 26.3484 16.0673 26.5712 15.9082L49.1328 5.02511V19.5995C49.1328 20.0768 49.3874 20.4905 49.7056 20.8087C50.183 21.4452 51.074 21.5406 51.774 21.2224L61.5433 15.5581H61.6388L67.144 12.2805L80.891 4.2932L95.3699 12.2805H69.9443L64.3437 15.5581H101.13L111.695 21.4133C112.49 21.827 113.445 21.5724 113.922 20.7769C114.081 20.4587 114.177 20.1405 114.081 19.8222C115.672 20.4587 117.613 20.936 119.841 21.1906H158.409C159.3 21.1906 160 20.4587 160 19.5995C160 18.7403 159.268 17.9766 158.409 17.9766Z" fill="#8D949A"/>
</svg>
