<svg width="46" height="32" viewBox="0 0 46 32" fill="none" xmlns="http://www.w3.org/2000/svg">
    <path fill-rule="evenodd" clip-rule="evenodd" d="M41.1429 13.7143C34.5825 11.3469 29.8031 5.32234 23.6896 1.96557C21.4077 0.712609 18.7871 -8.21209e-07 16 -6.99382e-07C7.16344 -3.13124e-07 -1.08564e-06 7.16344 -6.99382e-07 16C-3.13124e-07 24.8366 7.16344 32 16 32C18.7871 32 21.4077 31.2874 23.6896 30.0344C29.8031 26.6777 34.5825 20.6531 41.1429 18.2857L44.7474 17.0842C45.7893 16.7369 45.7893 15.2631 44.7474 14.9158L41.1429 13.7143Z" fill="#ED6D43"/>
    <path fill-rule="evenodd" clip-rule="evenodd" d="M41.1429 13.7143C34.5825 11.3469 29.8031 5.32234 23.6896 1.96557C21.4077 0.712609 18.7871 -8.21209e-07 16 -6.99382e-07C7.16344 -3.13124e-07 -1.08564e-06 7.16344 -6.99382e-07 16C-3.13124e-07 24.8366 7.16344 32 16 32C18.7871 32 21.4077 31.2874 23.6896 30.0344C29.8031 26.6777 34.5825 20.6531 41.1429 18.2857L44.7474 17.0842C45.7893 16.7369 45.7893 15.2631 44.7474 14.9158L41.1429 13.7143Z" fill="url(#paint0_radial)"/>
    <path fill-rule="evenodd" clip-rule="evenodd" d="M41.1429 13.7143C34.5825 11.3469 29.8031 5.32234 23.6896 1.96557C21.4077 0.712609 18.7871 -8.21209e-07 16 -6.99382e-07C7.16344 -3.13124e-07 -1.08564e-06 7.16344 -6.99382e-07 16C-3.13124e-07 24.8366 7.16344 32 16 32C18.7871 32 21.4077 31.2874 23.6896 30.0344C29.8031 26.6777 34.5825 20.6531 41.1429 18.2857L44.7474 17.0842C45.7893 16.7369 45.7893 15.2631 44.7474 14.9158L41.1429 13.7143Z" fill="url(#paint1_radial)"/>
    <path fill-rule="evenodd" clip-rule="evenodd" d="M41.1429 13.7143C34.5825 11.3469 29.8031 5.32234 23.6896 1.96557C21.4077 0.712609 18.7871 -8.21209e-07 16 -6.99382e-07C7.16344 -3.13124e-07 -1.08564e-06 7.16344 -6.99382e-07 16C-3.13124e-07 24.8366 7.16344 32 16 32C18.7871 32 21.4077 31.2874 23.6896 30.0344C29.8031 26.6777 34.5825 20.6531 41.1429 18.2857L44.7474 17.0842C45.7893 16.7369 45.7893 15.2631 44.7474 14.9158L41.1429 13.7143Z" fill="url(#paint2_radial)"/>
    <defs>
        <radialGradient id="paint0_radial" cx="0" cy="0" r="1" gradientUnits="userSpaceOnUse" gradientTransform="translate(-2.47438 26.1744) rotate(-12.528) scale(49.174 30.3788)">
            <stop stop-color="#ED3751"/>
            <stop offset="1" stop-color="#ED3751" stop-opacity="0"/>
        </radialGradient>
        <radialGradient id="paint1_radial" cx="0" cy="0" r="1" gradientUnits="userSpaceOnUse" gradientTransform="translate(62.3547 27.3231) rotate(-177.89) scale(44.5693 19.2301)">
            <stop offset="0.101384" stop-color="#249DDF"/>
            <stop offset="1" stop-color="#249DDF" stop-opacity="0"/>
        </radialGradient>
        <radialGradient id="paint2_radial" cx="0" cy="0" r="1" gradientUnits="userSpaceOnUse" gradientTransform="translate(40.58) rotate(178.539) scale(77.2262 16.5104)">
            <stop stop-color="#5AED78"/>
            <stop offset="1" stop-color="#5AED78" stop-opacity="0"/>
        </radialGradient>
    </defs>
</svg>
