<svg width="99" height="99" viewBox="0 0 99 99" fill="none" xmlns="http://www.w3.org/2000/svg">
    <path d="M80.5907 53.2125H76.588C76.6023 53.1977 78.6099 49.073 78.6099 49.073C78.6099 49.073 80.5778 53.1989 80.5907 53.2125Z" fill="#8D949A"/>
    <path fill-rule="evenodd" clip-rule="evenodd" d="M49.5034 99C76.8406 99 99 76.8406 99 49.4966C99 22.1594 76.8406 0 49.5034 0C22.1594 0 0 22.1594 0 49.4966C0 76.8406 22.1594 99 49.5034 99ZM78.6099 40.1518C75.3379 45.9308 68.8895 57.6389 68.8895 57.6389H74.4157L75.3105 55.8833H81.9023L82.7767 57.6389H88.337L78.6099 40.1518ZM67.5916 45.5824H62.5094V47.8502L67.5916 47.8453V50.9124H62.5094V53.4261H67.5916V57.6408H57.236V41.4857H67.5916V45.5824ZM50.7398 41.4838L47.1194 48.7245C46.8326 48.2191 43.5127 41.4838 43.5127 41.4838H37.8773L47.1194 58.8411C47.1194 58.8411 56.3957 41.4838 56.3685 41.4838H50.7398ZM37.0166 57.6389H31.7363V41.4838C31.7363 41.4838 37.0166 41.5036 37.0166 41.4838V57.6389ZM21.6812 41.4838V47.7341L13.0948 40.2611V57.6389H18.3819V51.3818L26.9615 58.8411V41.4838H21.6812Z" fill="#8D949A"/>
</svg>
