<svg width="31" height="30" viewBox="0 0 31 30" fill="none" xmlns="http://www.w3.org/2000/svg">
<path d="M0.75 15C0.75 6.71573 7.46573 0 15.75 0C24.0343 0 30.75 6.71573 30.75 15C30.75 23.2843 24.0343 30 15.75 30C7.46573 30 0.75 23.2843 0.75 15ZM23.25 15C23.25 10.8579 19.8921 7.5 15.75 7.5C11.6079 7.5 8.25 10.8579 8.25 15C8.25 19.1421 11.6079 22.5 15.75 22.5C19.8921 22.5 23.25 19.1421 23.25 15Z" fill="white"/>
<path d="M15.75 0C18.9386 0 22.0443 1.01611 24.6163 2.90085C27.1882 4.7856 29.0927 7.44092 30.0532 10.4814C31.0138 13.5219 30.9804 16.7894 29.958 19.8097C28.9356 22.83 26.9773 25.4458 24.3674 27.2777C21.7574 29.1095 18.6317 30.062 15.4437 29.9969C12.2558 29.9318 9.17148 28.8525 6.63853 26.9156C4.10557 24.9787 2.25574 22.2851 1.35748 19.2256C0.459232 16.1661 0.559307 12.9 1.64318 9.9012L8.69659 12.4506C8.15465 13.95 8.10462 15.583 8.55374 17.1128C9.00287 18.6425 9.92779 19.9894 11.1943 20.9578C12.4607 21.9262 14.0029 22.4659 15.5969 22.4984C17.1908 22.531 18.7537 22.0547 20.0587 21.1388C21.3636 20.2229 22.3428 18.915 22.854 17.4048C23.3652 15.8947 23.3819 14.261 22.9016 12.7407C22.4213 11.2205 21.4691 9.8928 20.1831 8.95043C18.8971 8.00805 17.3443 7.5 15.75 7.5L15.75 0Z" fill="url(#paint0_angular)"/>
<defs>
<radialGradient id="paint0_angular" cx="0" cy="0" r="1" gradientUnits="userSpaceOnUse" gradientTransform="translate(15.75 15) rotate(-90) scale(15)">
<stop stop-color="#5AED78"/>
<stop offset="0.34375" stop-color="#4CABE7"/>
<stop offset="0.65625" stop-color="#ED3751"/>
<stop offset="1" stop-color="#ED6D43"/>
</radialGradient>
</defs>
</svg>
