<svg xmlns="http://www.w3.org/2000/svg" display="none">

    <symbol id="search" viewBox="0 0 20 20">
        <path fill-rule="evenodd" clip-rule="evenodd"
              d="M8.00002 1.59999C4.4654 1.59999 1.60002 4.46537 1.60002 7.99999C1.60002 11.5346 4.4654 14.4 8.00002 14.4C11.5346 14.4 14.4 11.5346 14.4 7.99999C14.4 4.46537 11.5346 1.59999 8.00002 1.59999ZM0.400024 7.99999C0.400024 3.80263 3.80266 0.399994 8.00002 0.399994C12.1974 0.399994 15.6 3.80263 15.6 7.99999C15.6 12.1974 12.1974 15.6 8.00002 15.6C3.80266 15.6 0.400024 12.1974 0.400024 7.99999Z"/>
        <path fill-rule="evenodd" clip-rule="evenodd"
              d="M13.4243 12.5757L19.4243 18.5757L18.5758 19.4243L12.5758 13.4243L13.4243 12.5757Z"/>
    </symbol>

    <symbol id="arrow-top" viewBox="0 0 18 21">
        <path fill-rule="evenodd" clip-rule="evenodd"
              d="M0.575684 8.57572L8.99995 0.151459L17.4242 8.57572L16.5757 9.42425L9.59995 2.44851V21H8.39995V2.44851L1.42421 9.42425L0.575684 8.57572Z"/>
    </symbol>

    <symbol id="notification" viewBox="0 0 16 18">
        <path fill-rule="evenodd" clip-rule="evenodd"
              d="M3.89162 3.94695C4.06968 1.81021 5.85589 0.166656 8.00004 0.166656C10.1442 0.166656 11.9304 1.81021 12.1085 3.94695L12.3443 6.77727C12.546 9.19782 13.4261 11.5125 14.8834 13.4556L15.0667 13.7C15.1803 13.8515 15.1986 14.0542 15.1139 14.2236C15.0292 14.393 14.8561 14.5 14.6667 14.5H11V14.8333C11 16.4902 9.6569 17.8333 8.00004 17.8333C6.34319 17.8333 5.00004 16.4902 5.00004 14.8333V14.5H1.33338C1.14399 14.5 0.970859 14.393 0.886163 14.2236C0.801467 14.0542 0.819745 13.8515 0.933377 13.7L1.11666 13.4556C2.57402 11.5125 3.45405 9.19782 3.65576 6.77727L3.89162 3.94695ZM13.6876 13.5C12.3537 11.527 11.5462 9.24122 11.3478 6.86032L11.1119 4.03C10.9771 2.41155 9.62411 1.16666 8.00004 1.16666C6.37598 1.16666 5.02304 2.41155 4.88816 4.03L4.65231 6.86032C4.4539 9.24122 3.64636 11.527 2.31248 13.5H13.6876ZM6.00004 14.5V14.8333C6.00004 15.9379 6.89547 16.8333 8.00004 16.8333C9.10461 16.8333 10 15.9379 10 14.8333V14.5H6.00004Z"/>
    </symbol>

    <symbol id="notification1" viewBox="0 0 16 18">
        <path fill-rule="evenodd" clip-rule="evenodd"
              d="M10.4147 0.94765C9.73398 0.455194 8.89843 0.166656 8.00004 0.166656C5.85589 0.166656 4.06968 1.81021 3.89162 3.94695L3.65576 6.77727C3.45405 9.19782 2.57402 11.5125 1.11666 13.4556L0.933377 13.7C0.819745 13.8515 0.801468 14.0542 0.886163 14.2236C0.970859 14.393 1.14399 14.5 1.33338 14.5H5.00004V14.8333C5.00004 16.4902 6.34319 17.8333 8.00004 17.8333C9.6569 17.8333 11 16.4902 11 14.8333V14.5H14.6667C14.8561 14.5 15.0292 14.393 15.1139 14.2236C15.1986 14.0542 15.1803 13.8515 15.0667 13.7L14.8834 13.4556C13.6672 11.834 12.8531 9.95369 12.4997 7.969C12.1288 7.92271 11.7736 7.82562 11.4413 7.68491C11.7407 9.76746 12.5085 11.7559 13.6876 13.5H2.31248C3.64636 11.527 4.4539 9.24122 4.65231 6.86032L4.88817 4.03C5.02304 2.41155 6.37598 1.16666 8.00004 1.16666C8.63887 1.16666 9.23574 1.35927 9.73304 1.69147C9.92826 1.41569 10.1575 1.16571 10.4147 0.94765ZM6.00004 14.8333V14.5H10V14.8333C10 15.9379 9.10461 16.8333 8.00004 16.8333C6.89547 16.8333 6.00004 15.9379 6.00004 14.8333Z"/>
    </symbol>

    <symbol id="user" viewBox="0 0 18 18">
        <path fill-rule="evenodd" clip-rule="evenodd"
              d="M8.99984 4.50002C7.43503 4.50002 6.1665 5.76855 6.1665 7.33335C6.1665 8.89816 7.43503 10.1667 8.99984 10.1667C10.5646 10.1667 11.8332 8.89816 11.8332 7.33335C11.8332 5.76855 10.5646 4.50002 8.99984 4.50002ZM5.1665 7.33335C5.1665 5.21626 6.88275 3.50002 8.99984 3.50002C11.1169 3.50002 12.8332 5.21626 12.8332 7.33335C12.8332 9.45044 11.1169 11.1667 8.99984 11.1667C6.88275 11.1667 5.1665 9.45044 5.1665 7.33335Z"/>
        <path fill-rule="evenodd" clip-rule="evenodd"
              d="M3.94848 14.9873C5.31256 16.1395 7.07472 16.8334 8.99984 16.8334C10.925 16.8334 12.6871 16.1394 14.0512 14.9873C12.7767 13.6591 10.9849 12.8334 8.99984 12.8334C7.01477 12.8334 5.22297 13.6591 3.94848 14.9873ZM2.85972 14.7048C4.32643 12.9506 6.5329 11.8334 8.99984 11.8334C11.4668 11.8334 13.6733 12.9506 15.14 14.7048L15.4401 15.0638L15.1018 15.387C13.5164 16.9021 11.3664 17.8334 8.99984 17.8334C6.63332 17.8334 4.48325 16.9021 2.89786 15.387L2.5596 15.0638L2.85972 14.7048Z"/>
        <path fill-rule="evenodd" clip-rule="evenodd"
              d="M8.99984 1.16669C4.67361 1.16669 1.1665 4.67379 1.1665 9.00002C1.1665 13.3263 4.67361 16.8334 8.99984 16.8334C13.3261 16.8334 16.8332 13.3263 16.8332 9.00002C16.8332 4.67379 13.3261 1.16669 8.99984 1.16669ZM0.166504 9.00002C0.166504 4.1215 4.12132 0.166687 8.99984 0.166687C13.8784 0.166687 17.8332 4.1215 17.8332 9.00002C17.8332 13.8785 13.8784 17.8334 8.99984 17.8334C4.12133 17.8334 0.166504 13.8785 0.166504 9.00002Z"/>
    </symbol>

    <symbol id="lock" viewBox="0 0 16 18">
        <path fill-rule="evenodd" clip-rule="evenodd"
              d="M4.16683 4.00002C4.16683 1.88293 5.88307 0.166687 8.00016 0.166687C10.1173 0.166687 11.8335 1.88293 11.8335 4.00002V6.83335H13.0002C14.1968 6.83335 15.1668 7.8034 15.1668 9.00002V15.6667C15.1668 16.8633 14.1968 17.8334 13.0002 17.8334H3.00016C1.80355 17.8334 0.833496 16.8633 0.833496 15.6667V9.00002C0.833496 7.8034 1.80355 6.83335 3.00016 6.83335H4.16683V4.00002ZM5.16683 6.83335H10.8335V4.00002C10.8335 2.43521 9.56497 1.16669 8.00016 1.16669C6.43536 1.16669 5.16683 2.43521 5.16683 4.00002V6.83335ZM3.00016 7.83335C2.35583 7.83335 1.8335 8.35569 1.8335 9.00002V15.6667C1.8335 16.311 2.35583 16.8334 3.00016 16.8334H13.0002C13.6445 16.8334 14.1668 16.311 14.1668 15.6667V9.00002C14.1668 8.35569 13.6445 7.83335 13.0002 7.83335H3.00016ZM5.8335 13.1667C5.8335 11.9701 6.80355 11 8.00016 11C9.19678 11 10.1668 11.9701 10.1668 13.1667C10.1668 14.3633 9.19678 15.3334 8.00016 15.3334C6.80355 15.3334 5.8335 14.3633 5.8335 13.1667ZM8.00016 12C7.35583 12 6.8335 12.5224 6.8335 13.1667C6.8335 13.811 7.35583 14.3334 8.00016 14.3334C8.64449 14.3334 9.16683 13.811 9.16683 13.1667C9.16683 12.5224 8.64449 12 8.00016 12Z"/>
    </symbol>

    <symbol id="close" viewBox="0 0 18 18">
        <path fill-rule="evenodd" clip-rule="evenodd"
              d="M8.99995 8.15148L16.5757 0.575745L17.4242 1.42427L9.84848 9.00001L17.9242 17.0757L17.0757 17.9243L8.99995 9.84854L0.924212 17.9243L0.0756836 17.0757L8.15142 9.00001L0.575684 1.42427L1.42421 0.575745L8.99995 8.15148Z"/>
    </symbol>

    <symbol id="facebook" viewBox="0 0 9 17">
        <path d="M8.39258 9.89062L8.83594 7H6.0625V5.125C6.0625 4.33418 6.45 3.5625 7.69219 3.5625H8.95312V1.10156C8.95312 1.10156 7.80879 0.90625 6.71465 0.90625C4.43047 0.90625 2.9375 2.29063 2.9375 4.79688V7H0.398438V9.89062H2.9375V16.8785C3.97287 17.0405 5.02713 17.0405 6.0625 16.8785V9.89062H8.39258Z"/>
    </symbol>

    <symbol id="facebook2" viewBox="0 0 24 24">
        <path d="M24 12C24 5.37258 18.6274 0 12 0C5.37258 0 0 5.37258 0 12C0 17.9895 4.3882 22.954 10.125 23.8542V15.4687H7.07812V12H10.125V9.35625C10.125 6.34875 11.9166 4.6875 14.6576 4.6875C15.9701 4.6875 17.3438 4.92187 17.3438 4.92187V7.875H15.8306C14.34 7.875 13.875 8.80008 13.875 9.75V12H17.2031L16.6711 15.4687H13.875V23.8542C19.6118 22.954 24 17.9895 24 12Z"/>
    </symbol>


    <symbol id="people" viewBox="0 0 16 15">
        <path fill-rule="evenodd" clip-rule="evenodd"
              d="M1 9.79365V13.1667H6.66667V11.0467L6.80955 10.9009C7.24783 10.4536 7.75209 10.071 8.30679 9.76869C7.3533 8.87781 6.07397 8.33332 4.66667 8.33332C3.24626 8.33332 1.95623 8.88799 1 9.79365ZM0.14288 9.23422C1.29181 8.06175 2.89462 7.33332 4.66667 7.33332C6.43871 7.33332 8.04152 8.06175 9.19045 9.23422L9.33333 9.38003V10.3774L9.04788 10.513C8.53794 10.7552 8.07226 11.0762 7.66667 11.4603V14.1667H0V9.38003L0.14288 9.23422Z"/>
        <path fill-rule="evenodd" clip-rule="evenodd"
              d="M7.66667 11.4603L7.66667 13.1667H15V11.4603C14.0438 10.5547 12.7537 9.99999 11.3333 9.99999C9.91293 9.99999 8.62289 10.5547 7.66667 11.4603ZM6.80955 10.9009C7.95848 9.72841 9.56129 8.99999 11.3333 8.99999C13.1054 8.99999 14.7082 9.72841 15.8571 10.9009L16 11.0467V14.1667H6.66667V11.0467L6.80955 10.9009Z"/>
        <path fill-rule="evenodd" clip-rule="evenodd"
              d="M11.3333 3.33332C10.4589 3.33332 9.75 4.04221 9.75 4.91666C9.75 5.79111 10.4589 6.49999 11.3333 6.49999C12.2078 6.49999 12.9167 5.79111 12.9167 4.91666C12.9167 4.04221 12.2078 3.33332 11.3333 3.33332ZM8.75 4.91666C8.75 3.48992 9.9066 2.33332 11.3333 2.33332C12.7601 2.33332 13.9167 3.48992 13.9167 4.91666C13.9167 6.34339 12.7601 7.49999 11.3333 7.49999C9.9066 7.49999 8.75 6.34339 8.75 4.91666Z"/>
        <path fill-rule="evenodd" clip-rule="evenodd"
              d="M4.66667 1.66666C3.79222 1.66666 3.08333 2.37554 3.08333 3.24999C3.08333 4.12444 3.79222 4.83332 4.66667 4.83332C5.54112 4.83332 6.25 4.12444 6.25 3.24999C6.25 2.37554 5.54112 1.66666 4.66667 1.66666ZM2.08333 3.24999C2.08333 1.82325 3.23993 0.666656 4.66667 0.666656C6.0934 0.666656 7.25 1.82325 7.25 3.24999C7.25 4.67673 6.0934 5.83332 4.66667 5.83332C3.23993 5.83332 2.08333 4.67673 2.08333 3.24999Z"/>
    </symbol>

    <symbol id="calendar" viewBox="0 0 16 16">
        <path fill-rule="evenodd" clip-rule="evenodd" d="M0 2.5H16V15.1667H0V2.5ZM1 3.5V14.1667H15V3.5H1Z"/>
        <path fill-rule="evenodd" clip-rule="evenodd" d="M2.5 4.66667V0.5H3.5V4.66667H2.5Z"/>
        <path fill-rule="evenodd" clip-rule="evenodd" d="M0.5 5.83333H15.5V6.83333H0.5V5.83333Z"/>
        <path fill-rule="evenodd" clip-rule="evenodd" d="M12.5 4.66667V0.5H13.5V4.66667H12.5Z"/>
    </symbol>

    <symbol id="like" viewBox="0 0 13 13">
        <path d="M8.7451 0.245101L8.81849 0.318488C8.93786 0.437856 9.02779 0.583376 9.08117 0.743524L9.20729 1.12188C9.39729 1.69188 9.39729 2.30812 9.20729 2.87812L9 3.5C8.82345 4.02964 8.582 4.5333 8.28243 5H12.5C12.7761 5 13 5.22386 13 5.5V6.5C13 6.77614 12.7761 7 12.5 7C12.7761 7 13 7.22386 13 7.5V8.5C13 8.77614 12.7761 9 12.5 9H12.3063C12.6476 9 12.8886 9.33435 12.7806 9.65811L12.614 10.1581C12.5459 10.3623 12.3548 10.5 12.1396 10.5H11.8063C12.1476 10.5 12.3886 10.8343 12.2806 11.1581L12.114 11.6581C12.0459 11.8623 11.8548 12 11.6396 12H4.5C4.22386 12 4 11.7761 4 11.5V5.55414C4 5.51947 4.01377 5.48623 4.03828 5.46172L5.92471 3.57529C6.62405 2.87595 7.08741 1.97556 7.25 1L7.34153 0.633867C7.43467 0.261339 7.76938 0 8.15337 0C8.37532 0 8.58817 0.0881655 8.7451 0.245101Z"/>
        <path d="M0.5 6C0.5 5.72386 0.723858 5.5 1 5.5H3C3.27614 5.5 3.5 5.72386 3.5 6V12.5C3.5 12.7761 3.27614 13 3 13H1C0.723858 13 0.5 12.7761 0.5 12.5V6Z"/>
    </symbol>

    <symbol id="message" viewBox="0 0 14 12">
        <path d="M2.15347 0.0771484C1.26132 0.0771484 0.538086 0.800381 0.538086 1.69253V8.15407C0.538086 9.04622 1.26132 9.76946 2.15347 9.76946H4.30732V11.9233H4.62274C4.76555 11.9233 4.90251 11.8666 5.00349 11.7656L6.99962 9.76946H11.8458C12.7379 9.76946 13.4612 9.04622 13.4612 8.15407V1.69253C13.4612 0.800381 12.7379 0.0771484 11.8458 0.0771484H2.15347Z"/>
    </symbol>

    <symbol id="share" viewBox="0 0 13 11">
        <path d="M7.48191 7.55562V10.0868C7.48191 10.5322 8.02048 10.7553 8.33546 10.4403L12.8355 5.94034C12.9292 5.84657 12.9819 5.7194 12.9819 5.58679V5.501C12.9819 5.36839 12.9292 5.24122 12.8355 5.14745L8.33546 0.647449C8.02048 0.332467 7.48191 0.555549 7.48191 1.001V3.55248C5.19136 3.60882 3.81822 3.95758 2.73191 5.0439C1.62493 6.15088 0.645592 7.76844 0.500416 10.3676C0.487472 10.5993 0.779911 10.7152 0.945642 10.5527C1.50814 10.0012 2.35356 9.29613 3.48191 8.54389C4.64109 7.77111 6.39748 7.59552 7.48191 7.55562Z"/>
    </symbol>

    <symbol id="heart" viewBox="0 0 18 17">
        <path fill-rule="evenodd" clip-rule="evenodd"
              d="M12.3467 0H12.4502C13.8259 0 15.2041 0.521888 16.252 1.55268C17.3008 2.58434 17.8337 3.95186 17.8337 5.30685C17.8337 6.63799 17.3961 7.9665 16.6168 9.02699L16.6115 9.03413L16.606 9.04109C14.6494 11.5148 11.6171 14.3431 9.27931 15.9149L9.00152 16.1017L8.72299 15.916C7.54877 15.1333 6.19932 14.035 4.90902 12.8232C3.61649 11.6226 2.37558 10.2877 1.39545 9.05529L1.38952 9.04783L1.38387 9.04015C0.604227 7.9792 0.166992 6.65057 0.166992 5.30685C0.166992 3.94979 0.701238 2.59752 1.74616 1.55515L1.74864 1.55268C2.79651 0.521879 4.17409 0 5.5498 0H5.65941C6.85052 0.0129538 8.02797 0.37666 8.99796 0.998886C9.97223 0.364816 11.1524 0.0129591 12.3412 2.9554e-05L12.3467 0ZM2.45116 2.26436C1.59587 3.11821 1.16699 4.21491 1.16699 5.30685C1.16699 6.43578 1.53496 7.55353 2.18417 8.44045C3.12995 9.62878 4.3341 10.9244 5.59061 12.0915L5.59262 12.0934C6.75066 13.181 7.94657 14.1644 8.99915 14.8945C11.2037 13.353 13.9957 10.7274 15.8161 8.4278C16.4659 7.54033 16.8337 6.42228 16.8337 5.30685C16.8337 4.21232 16.403 3.10398 15.5507 2.26558C14.6976 1.42631 13.5751 1 12.4508 1H12.3501C11.2413 1.01262 10.1474 1.37558 9.29892 2.00729L9.00315 2.22749L8.7054 2.00999C7.85223 1.38678 6.75649 1.0126 5.65119 1H5.55026C4.42652 1 3.30418 1.4259 2.45116 2.26436Z"/>
    </symbol>

    <symbol id="message2" viewBox="0 0 19 16">
        <path fill-rule="evenodd" clip-rule="evenodd"
              d="M3.8945 3.45141C2.47868 4.44249 1.66699 5.76369 1.66699 7.16658C1.66699 8.31047 2.20436 9.39521 3.16894 10.2961L3.31066 10.4285L3.32607 10.6218C3.41829 11.7788 3.2691 12.9129 2.88822 13.9372C3.83917 13.6105 4.75289 13.0053 5.51438 12.1048L5.73366 11.8454L6.05555 11.9537C7.09339 12.3027 8.26188 12.4999 9.50033 12.4999C11.7115 12.4999 13.6919 11.8717 15.1062 10.8818C16.522 9.89068 17.3337 8.56948 17.3337 7.16658C17.3337 5.76369 16.522 4.44249 15.1062 3.45141C13.6919 2.46144 11.7115 1.83325 9.50033 1.83325C7.28915 1.83325 5.30875 2.46144 3.8945 3.45141ZM3.32104 2.63218C4.92286 1.5109 7.10913 0.833252 9.50033 0.833252C11.8915 0.833252 14.0778 1.5109 15.6796 2.63218C17.2799 3.75235 18.3337 5.34782 18.3337 7.16658C18.3337 8.98535 17.2799 10.5808 15.6796 11.701C14.0778 12.8223 11.8915 13.4999 9.50033 13.4999C8.28004 13.4999 7.11516 13.3236 6.0548 13.003C4.92111 14.2305 3.5096 14.9486 2.07354 15.1612L1.06161 15.311L1.56508 14.4205C2.13867 13.406 2.41203 12.1795 2.34175 10.888C1.30546 9.86273 0.666992 8.57998 0.666992 7.16658C0.666992 5.34782 1.72079 3.75235 3.32104 2.63218Z"/>
    </symbol>

    <symbol id="share2" viewBox="0 0 16 16">
        <path fill-rule="evenodd" clip-rule="evenodd"
              d="M10.8333 3.41659C10.8333 1.98985 11.9899 0.833252 13.4167 0.833252C14.8434 0.833252 16 1.98985 16 3.41659C16 4.84332 14.8434 5.99992 13.4167 5.99992C12.3843 5.99992 11.4934 5.39436 11.0797 4.51908L7.31785 6.40002C7.54179 6.88694 7.66667 7.42884 7.66667 7.99992C7.66667 8.571 7.54179 9.11291 7.31785 9.59983L11.0797 11.4808C11.4934 10.6055 12.3843 9.99992 13.4167 9.99992C14.8434 9.99992 16 11.1565 16 12.5833C16 14.01 14.8434 15.1666 13.4167 15.1666C11.9899 15.1666 10.8333 14.01 10.8333 12.5833C10.8333 12.5476 10.8341 12.512 10.8355 12.4767L6.78176 10.4498C6.0786 11.2951 5.01881 11.8333 3.83333 11.8333C1.71624 11.8333 0 10.117 0 7.99992C0 5.88283 1.71624 4.16659 3.83333 4.16659C5.01881 4.16659 6.07861 4.70472 6.78176 5.55003L10.8355 3.52316C10.8341 3.48781 10.8333 3.45228 10.8333 3.41659ZM13.4167 1.83325C12.5422 1.83325 11.8333 2.54213 11.8333 3.41659C11.8333 4.29104 12.5422 4.99992 13.4167 4.99992C14.2911 4.99992 15 4.29104 15 3.41659C15 2.54213 14.2911 1.83325 13.4167 1.83325ZM3.83333 5.16658C2.26853 5.16658 1 6.43511 1 7.99992C1 9.56472 2.26853 10.8333 3.83333 10.8333C5.39814 10.8333 6.66667 9.56472 6.66667 7.99992C6.66667 6.43511 5.39814 5.16658 3.83333 5.16658ZM11.8333 12.5833C11.8333 11.7088 12.5422 10.9999 13.4167 10.9999C14.2911 10.9999 15 11.7088 15 12.5833C15 13.4577 14.2911 14.1666 13.4167 14.1666C12.5422 14.1666 11.8333 13.4577 11.8333 12.5833Z"/>
    </symbol>

    <symbol id="heart2" viewBox="0 0 31 30">
        <path d="M24.9375 6.02915C23.5688 4.6827 21.7688 4 19.9688 4C19.9125 4 19.875 4 19.8188 4C18.075 4.01896 16.35 4.58788 15 5.59298C13.65 4.60685 11.925 4.01896 10.1813 4C10.125 4 10.0875 4 10.0313 4C8.23125 4 6.43125 4.6827 5.0625 6.02915C3.69375 7.39456 3 9.15821 3 10.9219C3 12.7045 3.58125 14.4681 4.6125 15.8715C6 17.6162 7.7625 19.5126 9.6 21.2193C11.4375 22.945 13.35 24.5001 15 25.6C18.3 23.3812 22.6125 19.3608 25.3875 15.8525C26.4188 14.4492 27 12.6855 27 10.9219C27 9.15821 26.3063 7.37559 24.9375 6.02915Z"
              fill="#ED6D43" stroke="#ED6D43" stroke-width="1.2"/>
    </symbol>

    <symbol id="copy" viewBox="0 0 20 20">
        <path fill-rule="evenodd" clip-rule="evenodd"
              d="M2.83398 1.16663H13.834V4.49996H17.1673V18.8333H6.16732V15.5H2.83398V1.16663ZM7.16732 15.5V17.8333H16.1673V5.49996H13.834V15.5H7.16732ZM3.83398 2.16663V14.5H12.834V2.16663H3.83398Z"/>
    </symbol>


</svg>