<svg xmlns="http://www.w3.org/2000/svg" display="none">

    <symbol id="search" viewBox="0 0 20 20">
        <path fill-rule="evenodd" clip-rule="evenodd"
              d="M8.00002 1.59999C4.4654 1.59999 1.60002 4.46537 1.60002 7.99999C1.60002 11.5346 4.4654 14.4 8.00002 14.4C11.5346 14.4 14.4 11.5346 14.4 7.99999C14.4 4.46537 11.5346 1.59999 8.00002 1.59999ZM0.400024 7.99999C0.400024 3.80263 3.80266 0.399994 8.00002 0.399994C12.1974 0.399994 15.6 3.80263 15.6 7.99999C15.6 12.1974 12.1974 15.6 8.00002 15.6C3.80266 15.6 0.400024 12.1974 0.400024 7.99999Z"/>
        <path fill-rule="evenodd" clip-rule="evenodd"
              d="M13.4243 12.5757L19.4243 18.5757L18.5758 19.4243L12.5758 13.4243L13.4243 12.5757Z"/>
    </symbol>

    <symbol id="arrow-top" viewBox="0 0 18 21">
        <path fill-rule="evenodd" clip-rule="evenodd"
              d="M0.575684 8.57572L8.99995 0.151459L17.4242 8.57572L16.5757 9.42425L9.59995 2.44851V21H8.39995V2.44851L1.42421 9.42425L0.575684 8.57572Z"/>
    </symbol>

    <symbol id="notification" viewBox="0 0 16 18">
        <path fill-rule="evenodd" clip-rule="evenodd"
              d="M3.89162 3.94695C4.06968 1.81021 5.85589 0.166656 8.00004 0.166656C10.1442 0.166656 11.9304 1.81021 12.1085 3.94695L12.3443 6.77727C12.546 9.19782 13.4261 11.5125 14.8834 13.4556L15.0667 13.7C15.1803 13.8515 15.1986 14.0542 15.1139 14.2236C15.0292 14.393 14.8561 14.5 14.6667 14.5H11V14.8333C11 16.4902 9.6569 17.8333 8.00004 17.8333C6.34319 17.8333 5.00004 16.4902 5.00004 14.8333V14.5H1.33338C1.14399 14.5 0.970859 14.393 0.886163 14.2236C0.801467 14.0542 0.819745 13.8515 0.933377 13.7L1.11666 13.4556C2.57402 11.5125 3.45405 9.19782 3.65576 6.77727L3.89162 3.94695ZM13.6876 13.5C12.3537 11.527 11.5462 9.24122 11.3478 6.86032L11.1119 4.03C10.9771 2.41155 9.62411 1.16666 8.00004 1.16666C6.37598 1.16666 5.02304 2.41155 4.88816 4.03L4.65231 6.86032C4.4539 9.24122 3.64636 11.527 2.31248 13.5H13.6876ZM6.00004 14.5V14.8333C6.00004 15.9379 6.89547 16.8333 8.00004 16.8333C9.10461 16.8333 10 15.9379 10 14.8333V14.5H6.00004Z"/>
    </symbol>

    <symbol id="notification1" viewBox="0 0 16 18">
        <path fill-rule="evenodd" clip-rule="evenodd"
              d="M10.4147 0.94765C9.73398 0.455194 8.89843 0.166656 8.00004 0.166656C5.85589 0.166656 4.06968 1.81021 3.89162 3.94695L3.65576 6.77727C3.45405 9.19782 2.57402 11.5125 1.11666 13.4556L0.933377 13.7C0.819745 13.8515 0.801468 14.0542 0.886163 14.2236C0.970859 14.393 1.14399 14.5 1.33338 14.5H5.00004V14.8333C5.00004 16.4902 6.34319 17.8333 8.00004 17.8333C9.6569 17.8333 11 16.4902 11 14.8333V14.5H14.6667C14.8561 14.5 15.0292 14.393 15.1139 14.2236C15.1986 14.0542 15.1803 13.8515 15.0667 13.7L14.8834 13.4556C13.6672 11.834 12.8531 9.95369 12.4997 7.969C12.1288 7.92271 11.7736 7.82562 11.4413 7.68491C11.7407 9.76746 12.5085 11.7559 13.6876 13.5H2.31248C3.64636 11.527 4.4539 9.24122 4.65231 6.86032L4.88817 4.03C5.02304 2.41155 6.37598 1.16666 8.00004 1.16666C8.63887 1.16666 9.23574 1.35927 9.73304 1.69147C9.92826 1.41569 10.1575 1.16571 10.4147 0.94765ZM6.00004 14.8333V14.5H10V14.8333C10 15.9379 9.10461 16.8333 8.00004 16.8333C6.89547 16.8333 6.00004 15.9379 6.00004 14.8333Z"/>
    </symbol>

    <symbol id="user" viewBox="0 0 18 18">
        <path fill-rule="evenodd" clip-rule="evenodd"
              d="M8.99984 4.50002C7.43503 4.50002 6.1665 5.76855 6.1665 7.33335C6.1665 8.89816 7.43503 10.1667 8.99984 10.1667C10.5646 10.1667 11.8332 8.89816 11.8332 7.33335C11.8332 5.76855 10.5646 4.50002 8.99984 4.50002ZM5.1665 7.33335C5.1665 5.21626 6.88275 3.50002 8.99984 3.50002C11.1169 3.50002 12.8332 5.21626 12.8332 7.33335C12.8332 9.45044 11.1169 11.1667 8.99984 11.1667C6.88275 11.1667 5.1665 9.45044 5.1665 7.33335Z"/>
        <path fill-rule="evenodd" clip-rule="evenodd"
              d="M3.94848 14.9873C5.31256 16.1395 7.07472 16.8334 8.99984 16.8334C10.925 16.8334 12.6871 16.1394 14.0512 14.9873C12.7767 13.6591 10.9849 12.8334 8.99984 12.8334C7.01477 12.8334 5.22297 13.6591 3.94848 14.9873ZM2.85972 14.7048C4.32643 12.9506 6.5329 11.8334 8.99984 11.8334C11.4668 11.8334 13.6733 12.9506 15.14 14.7048L15.4401 15.0638L15.1018 15.387C13.5164 16.9021 11.3664 17.8334 8.99984 17.8334C6.63332 17.8334 4.48325 16.9021 2.89786 15.387L2.5596 15.0638L2.85972 14.7048Z"/>
        <path fill-rule="evenodd" clip-rule="evenodd"
              d="M8.99984 1.16669C4.67361 1.16669 1.1665 4.67379 1.1665 9.00002C1.1665 13.3263 4.67361 16.8334 8.99984 16.8334C13.3261 16.8334 16.8332 13.3263 16.8332 9.00002C16.8332 4.67379 13.3261 1.16669 8.99984 1.16669ZM0.166504 9.00002C0.166504 4.1215 4.12132 0.166687 8.99984 0.166687C13.8784 0.166687 17.8332 4.1215 17.8332 9.00002C17.8332 13.8785 13.8784 17.8334 8.99984 17.8334C4.12133 17.8334 0.166504 13.8785 0.166504 9.00002Z"/>
    </symbol>

    <symbol id="lock" viewBox="0 0 16 18">
        <path fill-rule="evenodd" clip-rule="evenodd"
              d="M4.16683 4.00002C4.16683 1.88293 5.88307 0.166687 8.00016 0.166687C10.1173 0.166687 11.8335 1.88293 11.8335 4.00002V6.83335H13.0002C14.1968 6.83335 15.1668 7.8034 15.1668 9.00002V15.6667C15.1668 16.8633 14.1968 17.8334 13.0002 17.8334H3.00016C1.80355 17.8334 0.833496 16.8633 0.833496 15.6667V9.00002C0.833496 7.8034 1.80355 6.83335 3.00016 6.83335H4.16683V4.00002ZM5.16683 6.83335H10.8335V4.00002C10.8335 2.43521 9.56497 1.16669 8.00016 1.16669C6.43536 1.16669 5.16683 2.43521 5.16683 4.00002V6.83335ZM3.00016 7.83335C2.35583 7.83335 1.8335 8.35569 1.8335 9.00002V15.6667C1.8335 16.311 2.35583 16.8334 3.00016 16.8334H13.0002C13.6445 16.8334 14.1668 16.311 14.1668 15.6667V9.00002C14.1668 8.35569 13.6445 7.83335 13.0002 7.83335H3.00016ZM5.8335 13.1667C5.8335 11.9701 6.80355 11 8.00016 11C9.19678 11 10.1668 11.9701 10.1668 13.1667C10.1668 14.3633 9.19678 15.3334 8.00016 15.3334C6.80355 15.3334 5.8335 14.3633 5.8335 13.1667ZM8.00016 12C7.35583 12 6.8335 12.5224 6.8335 13.1667C6.8335 13.811 7.35583 14.3334 8.00016 14.3334C8.64449 14.3334 9.16683 13.811 9.16683 13.1667C9.16683 12.5224 8.64449 12 8.00016 12Z"/>
    </symbol>

    <symbol id="close" viewBox="0 0 18 18">
        <path fill-rule="evenodd" clip-rule="evenodd"
              d="M8.99995 8.15148L16.5757 0.575745L17.4242 1.42427L9.84848 9.00001L17.9242 17.0757L17.0757 17.9243L8.99995 9.84854L0.924212 17.9243L0.0756836 17.0757L8.15142 9.00001L0.575684 1.42427L1.42421 0.575745L8.99995 8.15148Z"/>
    </symbol>

    <symbol id="facebook" viewBox="0 0 9 17">
        <path d="M8.39258 9.89062L8.83594 7H6.0625V5.125C6.0625 4.33418 6.45 3.5625 7.69219 3.5625H8.95312V1.10156C8.95312 1.10156 7.80879 0.90625 6.71465 0.90625C4.43047 0.90625 2.9375 2.29063 2.9375 4.79688V7H0.398438V9.89062H2.9375V16.8785C3.97287 17.0405 5.02713 17.0405 6.0625 16.8785V9.89062H8.39258Z"/>
    </symbol>

    <symbol id="people" viewBox="0 0 16 15">
        <path fill-rule="evenodd" clip-rule="evenodd"
              d="M1 9.79365V13.1667H6.66667V11.0467L6.80955 10.9009C7.24783 10.4536 7.75209 10.071 8.30679 9.76869C7.3533 8.87781 6.07397 8.33332 4.66667 8.33332C3.24626 8.33332 1.95623 8.88799 1 9.79365ZM0.14288 9.23422C1.29181 8.06175 2.89462 7.33332 4.66667 7.33332C6.43871 7.33332 8.04152 8.06175 9.19045 9.23422L9.33333 9.38003V10.3774L9.04788 10.513C8.53794 10.7552 8.07226 11.0762 7.66667 11.4603V14.1667H0V9.38003L0.14288 9.23422Z"/>
        <path fill-rule="evenodd" clip-rule="evenodd"
              d="M7.66667 11.4603L7.66667 13.1667H15V11.4603C14.0438 10.5547 12.7537 9.99999 11.3333 9.99999C9.91293 9.99999 8.62289 10.5547 7.66667 11.4603ZM6.80955 10.9009C7.95848 9.72841 9.56129 8.99999 11.3333 8.99999C13.1054 8.99999 14.7082 9.72841 15.8571 10.9009L16 11.0467V14.1667H6.66667V11.0467L6.80955 10.9009Z"/>
        <path fill-rule="evenodd" clip-rule="evenodd"
              d="M11.3333 3.33332C10.4589 3.33332 9.75 4.04221 9.75 4.91666C9.75 5.79111 10.4589 6.49999 11.3333 6.49999C12.2078 6.49999 12.9167 5.79111 12.9167 4.91666C12.9167 4.04221 12.2078 3.33332 11.3333 3.33332ZM8.75 4.91666C8.75 3.48992 9.9066 2.33332 11.3333 2.33332C12.7601 2.33332 13.9167 3.48992 13.9167 4.91666C13.9167 6.34339 12.7601 7.49999 11.3333 7.49999C9.9066 7.49999 8.75 6.34339 8.75 4.91666Z"/>
        <path fill-rule="evenodd" clip-rule="evenodd"
              d="M4.66667 1.66666C3.79222 1.66666 3.08333 2.37554 3.08333 3.24999C3.08333 4.12444 3.79222 4.83332 4.66667 4.83332C5.54112 4.83332 6.25 4.12444 6.25 3.24999C6.25 2.37554 5.54112 1.66666 4.66667 1.66666ZM2.08333 3.24999C2.08333 1.82325 3.23993 0.666656 4.66667 0.666656C6.0934 0.666656 7.25 1.82325 7.25 3.24999C7.25 4.67673 6.0934 5.83332 4.66667 5.83332C3.23993 5.83332 2.08333 4.67673 2.08333 3.24999Z"/>
    </symbol>

    <symbol id="calendar" viewBox="0 0 16 16">
        <path fill-rule="evenodd" clip-rule="evenodd" d="M0 2.5H16V15.1667H0V2.5ZM1 3.5V14.1667H15V3.5H1Z"/>
        <path fill-rule="evenodd" clip-rule="evenodd" d="M2.5 4.66667V0.5H3.5V4.66667H2.5Z"/>
        <path fill-rule="evenodd" clip-rule="evenodd" d="M0.5 5.83333H15.5V6.83333H0.5V5.83333Z"/>
        <path fill-rule="evenodd" clip-rule="evenodd" d="M12.5 4.66667V0.5H13.5V4.66667H12.5Z"/>
    </symbol>

</svg>