<svg width="24" height="24" viewBox="0 0 24 24" fill="none" xmlns="http://www.w3.org/2000/svg">
    <path d="M0 12C0 5.37258 5.37258 0 12 0C18.6274 0 24 5.37258 24 12C24 18.6274 18.6274 24 12 24C5.37258 24 0 18.6274 0 12Z" fill="black"/>
    <path d="M15.4509 9.77566C16.4798 10.5138 17.7403 10.9481 19.1016 10.9481V8.31909C18.844 8.31914 18.587 8.29218 18.335 8.23859V10.308C16.9737 10.308 15.7134 9.87368 14.6843 9.13562V14.5006C14.6843 17.1844 12.5163 19.36 9.84218 19.36C8.8444 19.36 7.917 19.0572 7.14661 18.5381C8.02588 19.4403 9.2521 20 10.6087 20C13.283 20 15.4511 17.8245 15.4511 15.1405V9.77566H15.4509ZM16.3967 7.12334C15.8709 6.54683 15.5256 5.80179 15.4509 4.97813V4.63998H14.7244C14.9073 5.68687 15.5311 6.58126 16.3967 7.12334ZM8.838 16.4786C8.54422 16.092 8.38546 15.6191 8.38617 15.1328C8.38617 13.9054 9.37777 12.9101 10.6011 12.9101C10.8291 12.91 11.0558 12.9451 11.273 13.0143V10.3265C11.0191 10.2916 10.7629 10.2768 10.5067 10.2822V12.3742C10.2893 12.305 10.0625 12.2699 9.83447 12.2701C8.6111 12.2701 7.61955 13.2653 7.61955 14.4929C7.61955 15.3609 8.11519 16.1125 8.838 16.4786Z" fill="#FF004F"/>
    <path d="M14.6843 9.13556C15.7135 9.87362 16.9738 10.3079 18.335 10.3079V8.23853C17.5752 8.07611 16.9025 7.67762 16.3968 7.12334C15.5311 6.5812 14.9073 5.68681 14.7245 4.63998H12.8161V15.1404C12.8117 16.3646 11.8218 17.3558 10.6011 17.3558C9.88172 17.3558 9.24263 17.0116 8.83789 16.4786C8.11513 16.1125 7.61949 15.3609 7.61949 14.493C7.61949 13.2654 8.61104 12.2702 9.83441 12.2702C10.0688 12.2702 10.2947 12.3068 10.5066 12.3743V10.2823C7.87948 10.3367 5.7666 12.491 5.7666 15.1405C5.7666 16.4631 6.29276 17.6621 7.14671 18.5381C7.9171 19.0572 8.8445 19.36 9.84229 19.36C12.5165 19.36 14.6844 17.1844 14.6844 14.5006V9.13556H14.6843Z" fill="white"/>
    <path d="M18.335 8.23854V7.67899C17.6499 7.68004 16.9781 7.48746 16.3968 7.12329C16.9114 7.68871 17.589 8.07858 18.335 8.23854ZM14.7245 4.63999C14.707 4.53994 14.6936 4.43923 14.6843 4.33814V4H12.0494V14.5006C12.0451 15.7245 11.0553 16.7157 9.83443 16.7157C9.476 16.7157 9.13759 16.6303 8.8379 16.4786C9.24265 17.0116 9.88173 17.3557 10.6011 17.3557C11.8217 17.3557 12.8118 16.3646 12.8161 15.1405V4.63999H14.7245ZM10.5068 10.2823V9.6866C10.2866 9.6564 10.0646 9.64124 9.84236 9.64135C7.16795 9.6413 5 11.8169 5 14.5006C5 16.183 5.85204 17.6658 7.14678 18.538C6.29283 17.662 5.76667 16.463 5.76667 15.1404C5.76667 12.491 7.87949 10.3367 10.5068 10.2823Z" fill="#00F2EA"/>
</svg>
