<svg width="27" height="27" viewBox="0 0 27 27" fill="none" xmlns="http://www.w3.org/2000/svg">
    <path fill-rule="evenodd" clip-rule="evenodd" d="M13.5 6.97499C11.231 6.97499 9.39165 8.81435 9.39165 11.0833C9.39165 13.3523 11.231 15.1917 13.5 15.1917C15.769 15.1917 17.6083 13.3523 17.6083 11.0833C17.6083 8.81435 15.769 6.97499 13.5 6.97499ZM7.94165 11.0833C7.94165 8.01354 10.4302 5.52499 13.5 5.52499C16.5698 5.52499 19.0583 8.01354 19.0583 11.0833C19.0583 14.1531 16.5698 16.6417 13.5 16.6417C10.4302 16.6417 7.94165 14.1531 7.94165 11.0833Z" fill="url(#paint0_linear)"/>
    <path fill-rule="evenodd" clip-rule="evenodd" d="M6.17552 22.1816C8.15343 23.8522 10.7086 24.8583 13.5 24.8583C16.2914 24.8583 18.8466 23.8522 20.8245 22.1816C18.9765 20.2557 16.3783 19.0583 13.5 19.0583C10.6216 19.0583 8.02352 20.2557 6.17552 22.1816ZM4.59681 21.772C6.72354 19.2283 9.92292 17.6083 13.5 17.6083C17.0771 17.6083 20.2764 19.2283 22.4032 21.772L22.8383 22.2924L22.3479 22.7612C20.0491 24.958 16.9315 26.3083 13.5 26.3083C10.0685 26.3083 6.95093 24.958 4.65212 22.7611L4.16165 22.2924L4.59681 21.772Z" fill="url(#paint1_linear)"/>
    <path fill-rule="evenodd" clip-rule="evenodd" d="M13.5 2.14166C7.22695 2.14166 2.14165 7.22696 2.14165 13.5C2.14165 19.773 7.22696 24.8583 13.5 24.8583C19.773 24.8583 24.8583 19.773 24.8583 13.5C24.8583 7.22696 19.773 2.14166 13.5 2.14166ZM0.69165 13.5C0.69165 6.42614 6.42614 0.691658 13.5 0.691658C20.5738 0.691658 26.3083 6.42614 26.3083 13.5C26.3083 20.5738 20.5738 26.3083 13.5 26.3083C6.42615 26.3083 0.69165 20.5738 0.69165 13.5Z" fill="url(#paint2_linear)"/>
    <defs>
        <linearGradient id="paint0_linear" x1="1.97248" y1="23.2587" x2="25.6679" y2="23.2587" gradientUnits="userSpaceOnUse">
            <stop stop-color="#ED6D43"/>
            <stop offset="1" stop-color="#ED3751"/>
        </linearGradient>
        <linearGradient id="paint1_linear" x1="1.97248" y1="23.2587" x2="25.6679" y2="23.2587" gradientUnits="userSpaceOnUse">
            <stop stop-color="#ED6D43"/>
            <stop offset="1" stop-color="#ED3751"/>
        </linearGradient>
        <linearGradient id="paint2_linear" x1="1.97248" y1="23.2587" x2="25.6679" y2="23.2587" gradientUnits="userSpaceOnUse">
            <stop stop-color="#ED6D43"/>
            <stop offset="1" stop-color="#ED3751"/>
        </linearGradient>
    </defs>
</svg>
